<svg version="1.1" xmlns="http://www.w3.org/2000/svg" viewBox="0 0 1904.4716640533488 604.7015799277599" width="1904.4716640533488" height="604.7015799277599">
  <!-- svg-source:excalidraw -->
  
  <defs>
    <style class="style-fonts">
      @font-face {
        font-family: "Virgil";
        src: url("https://excalidraw.com/Virgil.woff2");
      }
      @font-face {
        font-family: "Cascadia";
        src: url("https://excalidraw.com/Cascadia.woff2");
      }
      @font-face {
        font-family: "Assistant";
        src: url("https://excalidraw.com/Assistant-Regular.woff2");
      }
    </style>
    
  </defs>
  <g stroke-linecap="round" transform="translate(366.75099467379687 10) rotate(0 587.6192524822897 292.35078996387995)"><path d="M7.86 8.16 C7.86 8.16, 7.86 8.16, 7.86 8.16 M7.86 8.16 C7.86 8.16, 7.86 8.16, 7.86 8.16 M6.68 21.71 C10.11 20.27, 11.69 13.63, 21.12 5.11 M6.68 21.71 C10.78 15.88, 17.6 10.12, 21.12 5.11 M4.85 36.01 C15.51 25.63, 21.39 14.48, 34.37 2.05 M4.85 36.01 C15.68 23.37, 27.2 10.62, 34.37 2.05 M4.98 48.06 C19.96 32.08, 33.9 17.18, 45 2.02 M4.98 48.06 C15.62 37.26, 25.64 24.27, 45 2.02 M4.46 60.85 C15.65 47.79, 31.22 30.87, 55.63 1.98 M4.46 60.85 C18.66 44.68, 33.19 28.53, 55.63 1.98 M4.59 72.89 C19.31 57.68, 31.8 37.49, 66.26 1.95 M4.59 72.89 C22.78 51.65, 42.57 28.78, 66.26 1.95 M4.72 84.93 C18.15 67.89, 37.17 51.68, 76.89 1.91 M4.72 84.93 C25.01 61.68, 44.84 39.78, 76.89 1.91 M4.86 96.97 C26.51 70.82, 52.53 41.56, 87.52 1.88 M4.86 96.97 C29.59 68.41, 56.59 38.89, 87.52 1.88 M4.99 109.01 C39.45 68.16, 75.43 29.14, 98.15 1.85 M4.99 109.01 C33.36 75.23, 62.29 43.46, 98.15 1.85 M4.47 121.81 C38.7 79.86, 74.95 41.19, 108.78 1.81 M4.47 121.81 C33.39 90.05, 63.11 56.87, 108.78 1.81 M4.6 133.85 C45.33 91.68, 81.23 46.45, 119.41 1.78 M4.6 133.85 C35.25 99.69, 63.44 65.04, 119.41 1.78 M4.73 145.89 C49.02 92.07, 96.57 36.38, 130.04 1.74 M4.73 145.89 C39 105.71, 75.48 64.06, 130.04 1.74 M4.87 157.93 C43.72 112.95, 80.65 70.55, 140.67 1.71 M4.87 157.93 C52.17 107.23, 97.29 53.53, 140.67 1.71 M5 169.97 C41.01 128.41, 75.28 85.75, 150.65 2.43 M5 169.97 C41.65 127.38, 78.83 83.73, 150.65 2.43 M4.48 182.77 C35.74 144.88, 68.69 108.8, 161.28 2.39 M4.48 182.77 C55.03 124.11, 105.3 65.92, 161.28 2.39 M4.61 194.81 C63.61 126.88, 121.09 61.16, 171.91 2.36 M4.61 194.81 C63.58 124.86, 125.03 55.22, 171.91 2.36 M4.74 206.85 C62.27 141.84, 119.03 75.36, 182.54 2.32 M4.74 206.85 C63.79 139.79, 123.13 71.87, 182.54 2.32 M4.88 218.89 C71.39 143.18, 136.25 68.09, 193.17 2.29 M4.88 218.89 C44.71 172.38, 86.36 124.87, 193.17 2.29 M5.01 230.93 C49.69 181.31, 93.89 128.97, 203.8 2.26 M5.01 230.93 C47.53 178.27, 92.58 127.95, 203.8 2.26 M4.49 243.73 C50.69 186.91, 100.32 131.25, 214.43 2.22 M4.49 243.73 C64.72 174.38, 122.1 108.4, 214.43 2.22 M4.62 255.77 C75.76 174.7, 148.3 92.12, 225.06 2.19 M4.62 255.77 C52.12 203.55, 98.24 150.57, 225.06 2.19 M4.75 267.81 C68.87 193.89, 131.47 118.99, 235.69 2.15 M4.75 267.81 C64.07 197.74, 123.28 128.71, 235.69 2.15 M4.89 279.85 C62.51 214.91, 119.23 149.83, 246.32 2.12 M4.89 279.85 C64.42 208.93, 125.31 139.42, 246.32 2.12 M5.02 291.89 C74.54 211.26, 143.67 130.68, 256.95 2.08 M5.02 291.89 C84.83 200.98, 164.29 110.49, 256.95 2.08 M4.5 304.69 C102.03 193.66, 196.81 84.42, 267.58 2.05 M4.5 304.69 C69.32 229.57, 134.07 153.62, 267.58 2.05 M4.63 316.73 C88.64 218.28, 175.67 119.09, 278.21 2.01 M4.63 316.73 C71.41 239.1, 138.54 161.98, 278.21 2.01 M4.76 328.77 C98.02 219.07, 193.55 109.65, 288.84 1.98 M4.76 328.77 C76.45 246.35, 149.16 163.92, 288.84 1.98 M4.9 340.81 C119.18 207.1, 234.02 75.94, 299.47 1.94 M4.9 340.81 C94 237.97, 183.67 135.2, 299.47 1.94 M5.03 352.85 C113.72 224.97, 223.93 99.6, 310.1 1.91 M5.03 352.85 C86.98 260.2, 168.1 167.09, 310.1 1.91 M4.51 365.65 C131.05 221.48, 256.99 76.77, 320.73 1.88 M4.51 365.65 C126.56 225.8, 248.58 85.8, 320.73 1.88 M4.64 377.69 C92.14 275.91, 180.88 173.7, 331.36 1.84 M4.64 377.69 C78.87 290.95, 154.46 204.14, 331.36 1.84 M4.77 389.73 C118.77 259.07, 232.34 128.81, 341.99 1.81 M4.77 389.73 C85.04 299.28, 163.56 208.21, 341.99 1.81 M4.91 401.77 C103.72 287.09, 204.28 172.51, 352.62 1.77 M4.91 401.77 C86.46 306.21, 168.88 211.85, 352.62 1.77 M5.04 413.81 C117 287.49, 226.9 159.44, 363.25 1.74 M5.04 413.81 C91.38 316.81, 176.03 218.8, 363.25 1.74 M4.52 426.6 C91.96 323.32, 181.63 222.07, 373.88 1.7 M4.52 426.6 C126.13 289.47, 245.95 151.14, 373.88 1.7 M4.65 438.65 C128.47 296.81, 251.1 155.35, 383.85 2.42 M4.65 438.65 C92.05 336.92, 181.19 234.29, 383.85 2.42 M4.78 450.69 C148.9 287.04, 290.03 123.8, 394.48 2.39 M4.78 450.69 C113.06 324.55, 222.18 198.7, 394.48 2.39 M4.92 462.73 C118.99 331.41, 234.6 199.16, 405.11 2.35 M4.92 462.73 C128.69 319.31, 253.28 176.65, 405.11 2.35 M5.05 474.77 C126.44 335.3, 245.81 197.75, 415.74 2.32 M5.05 474.77 C101 362.26, 198.02 249.94, 415.74 2.32 M4.53 487.56 C96.27 386.24, 185.72 281.92, 426.37 2.29 M4.53 487.56 C170.05 298.4, 336.09 107.19, 426.37 2.29 M4.66 499.6 C120.25 366.01, 234.33 233.87, 437 2.25 M4.66 499.6 C120.44 365, 236.94 230.65, 437 2.25 M4.79 511.65 C100.04 400.11, 194.97 289.36, 447.63 2.22 M4.79 511.65 C121.06 378.51, 236.42 244.66, 447.63 2.22 M4.93 523.69 C154.21 353.33, 302.18 183.79, 458.26 2.18 M4.93 523.69 C97.79 413.73, 192.85 305.32, 458.26 2.18 M5.06 535.73 C151.83 368.68, 295.97 200.04, 468.89 2.15 M5.06 535.73 C165.09 354.36, 323.52 171.78, 468.89 2.15 M0.6 553.05 C150.99 379.81, 301.27 207.85, 479.52 2.11 M0.6 553.05 C107.08 429.68, 215.05 305.78, 479.52 2.11 M2.04 563.58 C112.43 435.84, 223.79 307.85, 490.15 2.08 M2.04 563.58 C148.38 395.38, 296.42 225.29, 490.15 2.08 M4.8 572.6 C143.97 412.73, 284.79 251.39, 500.78 2.04 M4.8 572.6 C122.13 437, 241.31 300.26, 500.78 2.04 M10.84 577.85 C205.81 357.19, 398.29 134.77, 511.41 2.01 M10.84 577.85 C143.86 427.04, 276.74 275.45, 511.41 2.01 M16.22 583.86 C157.84 421.63, 300.69 258.59, 522.04 1.98 M16.22 583.86 C177.22 398.38, 337.54 213.82, 522.04 1.98 M25.54 585.33 C181.73 405.31, 338.8 225.2, 532.67 1.94 M25.54 585.33 C226.42 359.2, 424.49 130.72, 532.67 1.94 M34.86 586.81 C219.44 375.92, 404.08 163.32, 543.3 1.91 M34.86 586.81 C176.04 425.41, 315.33 265.07, 543.3 1.91 M45.49 586.77 C165.55 450.73, 286.57 312.01, 553.93 1.87 M45.49 586.77 C194.18 412.85, 345.05 239.75, 553.93 1.87 M56.12 586.74 C251.2 360.62, 448.34 133.71, 564.56 1.84 M56.12 586.74 C191.61 429.85, 328.62 272.43, 564.56 1.84 M66.75 586.7 C216.55 413.86, 366.94 240.83, 575.19 1.8 M66.75 586.7 C188.79 448.84, 309.28 310.99, 575.19 1.8 M77.38 586.67 C186.49 460.84, 296.42 334.47, 585.82 1.77 M77.38 586.67 C185.76 464.4, 292.22 341.66, 585.82 1.77 M87.35 587.39 C256.29 395.03, 422.62 203.4, 596.45 1.73 M87.35 587.39 C249.56 401.8, 412.49 214.81, 596.45 1.73 M97.98 587.35 C254.33 404.51, 410.62 224.95, 607.08 1.7 M97.98 587.35 C275.67 381, 454.86 175.17, 607.08 1.7 M108.61 587.32 C246.84 429.49, 385.59 271.53, 617.06 2.42 M108.61 587.32 C261.5 411.92, 413.54 238.01, 617.06 2.42 M119.24 587.28 C287.54 392.68, 456.69 195.86, 627.69 2.38 M119.24 587.28 C270.55 415.29, 419.9 242.57, 627.69 2.38 M129.87 587.25 C317.82 371.07, 506.78 154.43, 638.32 2.35 M129.87 587.25 C318.97 368.25, 507.93 152.27, 638.32 2.35 M140.5 587.22 C327.92 374.9, 511.51 161.18, 648.95 2.32 M140.5 587.22 C335.6 360.71, 532.21 134.02, 648.95 2.32 M151.13 587.18 C336.64 369.28, 525.42 152.58, 659.58 2.28 M151.13 587.18 C345.85 364.59, 540.71 140.3, 659.58 2.28 M161.76 587.15 C299.86 429.34, 436.06 272.47, 670.21 2.25 M161.76 587.15 C325.92 396.72, 489.95 207.56, 670.21 2.25 M172.39 587.11 C334.56 400.92, 498.12 212.24, 680.84 2.21 M172.39 587.11 C292.36 449.66, 409.27 314.89, 680.84 2.21 M183.02 587.08 C348.63 396.13, 514.97 204.74, 691.47 2.18 M183.02 587.08 C358.81 385.56, 533.79 184.29, 691.47 2.18 M193.65 587.04 C385.8 367.82, 577.72 146.76, 702.1 2.14 M193.65 587.04 C324.15 438.9, 452.49 290.55, 702.1 2.14 M204.28 587.01 C314.5 458.32, 425.18 332.32, 712.73 2.11 M204.28 587.01 C325.38 447.59, 448.22 305.66, 712.73 2.11 M214.91 586.97 C415.38 358.42, 616.07 128.96, 723.36 2.07 M214.91 586.97 C333.4 449.79, 453.33 310.97, 723.36 2.07 M225.54 586.94 C336.6 456.36, 448.37 328.51, 733.99 2.04 M225.54 586.94 C402.23 382.2, 579.25 178.28, 733.99 2.04 M236.17 586.91 C400.76 395.08, 567.53 204.42, 744.62 2.01 M236.17 586.91 C343.98 461.57, 453.93 335.99, 744.62 2.01 M246.8 586.87 C361.71 455.07, 474.44 325.53, 755.25 1.97 M246.8 586.87 C424.75 381.78, 601.62 178.58, 755.25 1.97 M257.43 586.84 C381.24 445.53, 506.3 303.03, 765.88 1.94 M257.43 586.84 C393.42 427.29, 530.38 269.86, 765.88 1.94 M268.06 586.8 C428.99 401.61, 588.19 216.74, 776.51 1.9 M268.06 586.8 C404.33 428.97, 541.25 272.36, 776.51 1.9 M278.69 586.77 C433.02 409.81, 588.75 230.62, 787.14 1.87 M278.69 586.77 C445.96 394.95, 612.79 202.52, 787.14 1.87 M289.32 586.73 C486.95 357.93, 682.85 132.64, 797.77 1.83 M289.32 586.73 C433.56 420.17, 579.51 252.85, 797.77 1.83 M299.95 586.7 C493.83 363.23, 688.99 139.56, 808.4 1.8 M299.95 586.7 C488.08 373.34, 674.54 159.31, 808.4 1.8 M310.58 586.66 C477.9 391.7, 647.83 195.61, 819.03 1.76 M310.58 586.66 C477.46 394.58, 643.51 203.75, 819.03 1.76 M320.56 587.38 C445.51 442.28, 572.19 297.49, 829.66 1.73 M320.56 587.38 C426.28 466, 530.12 346.91, 829.66 1.73 M331.19 587.35 C459.54 436.59, 589.01 287.06, 840.29 1.69 M331.19 587.35 C462.93 437.35, 593.4 287.57, 840.29 1.69 M341.82 587.32 C530.32 368.27, 719.97 151.92, 850.26 2.42 M341.82 587.32 C499.65 407.45, 656.98 227.23, 850.26 2.42 M352.45 587.28 C479.91 439.5, 605.87 293.32, 860.89 2.38 M352.45 587.28 C500.35 414.2, 650.52 242.51, 860.89 2.38 M363.08 587.25 C535.17 388.96, 705.95 193.1, 871.52 2.35 M363.08 587.25 C563.89 353.36, 766.65 120.95, 871.52 2.35 M373.71 587.21 C489.21 458.3, 603.42 326.54, 882.15 2.31 M373.71 587.21 C478.47 467.24, 581.55 348.2, 882.15 2.31 M384.34 587.18 C494.87 457, 606.06 329.84, 892.78 2.28 M384.34 587.18 C503.35 450.22, 620.6 314.72, 892.78 2.28 M394.97 587.14 C541.02 419.39, 687.01 251.73, 903.41 2.24 M394.97 587.14 C543.27 415.95, 691.45 245.37, 903.41 2.24 M405.6 587.11 C509.58 465.31, 614.91 345.09, 914.04 2.21 M405.6 587.11 C516.43 456.72, 628.61 328.5, 914.04 2.21 M416.23 587.07 C590.52 384.88, 764.49 183.79, 924.67 2.17 M416.23 587.07 C528.69 456.35, 641.59 326.28, 924.67 2.17 M426.86 587.04 C620.71 362.61, 816.76 136.68, 935.3 2.14 M426.86 587.04 C540.61 459.53, 651.48 331.77, 935.3 2.14 M437.49 587 C596.05 402.36, 754.04 220.45, 945.93 2.1 M437.49 587 C639.4 355.42, 839.41 124.94, 945.93 2.1 M448.12 586.97 C621.86 387.43, 797.79 185.28, 956.56 2.07 M448.12 586.97 C618.47 391.7, 786.66 198.75, 956.56 2.07 M458.75 586.94 C616.24 406.68, 773.4 227.12, 967.19 2.04 M458.75 586.94 C641.17 374.74, 824.09 164.52, 967.19 2.04 M469.38 586.9 C659.48 365.32, 852.14 143.3, 977.82 2 M469.38 586.9 C622.41 411.11, 777.43 232.27, 977.82 2 M480.01 586.87 C604.98 440.12, 733.09 294.15, 988.45 1.97 M480.01 586.87 C591.38 457.21, 702.5 329.28, 988.45 1.97 M490.64 586.83 C635.26 418.13, 778.99 252.51, 999.08 1.93 M490.64 586.83 C663.65 388.75, 835.16 191.29, 999.08 1.93 M501.27 586.8 C635.07 429.72, 769.82 275.5, 1009.71 1.9 M501.27 586.8 C612.28 461.15, 722.24 335.76, 1009.71 1.9 M511.9 586.76 C694.18 375.84, 877.37 166.08, 1020.34 1.86 M511.9 586.76 C651.17 426.95, 789.8 267.45, 1020.34 1.86 M522.53 586.73 C662.04 426.21, 802.11 264.73, 1030.97 1.83 M522.53 586.73 C695.5 387.72, 867.96 189.38, 1030.97 1.83 M533.16 586.69 C642.68 462.95, 749.46 338.55, 1041.6 1.79 M533.16 586.69 C735.21 352.55, 937.75 119.08, 1041.6 1.79 M543.79 586.66 C650.96 461.76, 760.41 335.81, 1052.23 1.76 M543.79 586.66 C713.5 393.85, 882.5 199.84, 1052.23 1.76 M553.76 587.38 C727.11 388.47, 900.8 189.24, 1062.86 1.73 M553.76 587.38 C686.32 437.1, 816.63 286.8, 1062.86 1.73 M564.39 587.35 C671.22 465.39, 777.32 343.03, 1073.49 1.69 M564.39 587.35 C703.39 425.68, 844.64 263.29, 1073.49 1.69 M575.02 587.31 C757.89 379.72, 940.05 169.41, 1083.47 2.41 M575.02 587.31 C688.25 454.98, 803.52 322.26, 1083.47 2.41 M585.65 587.28 C787.41 353.19, 992.09 120.91, 1094.1 2.38 M585.65 587.28 C690.85 464.32, 796.83 342.41, 1094.1 2.38 M596.28 587.24 C787.95 367.27, 979.54 146.55, 1104.73 2.34 M596.28 587.24 C769.91 387.93, 943.35 188.62, 1104.73 2.34 M606.91 587.21 C772.16 400.18, 937.32 210.31, 1115.36 2.31 M606.91 587.21 C760.07 411.33, 914.59 233.53, 1115.36 2.31 M617.54 587.17 C727.04 461.19, 834.21 336.71, 1125.99 2.27 M617.54 587.17 C757.93 424.59, 898.93 262.94, 1125.99 2.27 M628.17 587.14 C792.44 400.62, 956.56 214.16, 1136.62 2.24 M628.17 587.14 C777.56 418.37, 925.04 249.38, 1136.62 2.24 M638.8 587.1 C831.46 366.01, 1023.8 143.18, 1146.59 2.96 M638.8 587.1 C821.01 378.31, 1003.62 168.24, 1146.59 2.96 M649.43 587.07 C822.34 391.45, 994.19 194.06, 1155.91 4.43 M649.43 587.07 C770.72 448.01, 891.87 308.23, 1155.91 4.43 M660.06 587.03 C813.67 409.35, 968.7 231.74, 1164.57 6.66 M660.06 587.03 C842.95 379.6, 1024.51 169.99, 1164.57 6.66 M670.69 587 C832.89 399.51, 995.38 213.37, 1170.61 11.91 M670.69 587 C859.26 374.01, 1045.64 159.53, 1170.61 11.91 M681.32 586.97 C836.26 409.94, 990.04 233.44, 1174.68 19.42 M681.32 586.97 C825.84 419.39, 971.93 251.13, 1174.68 19.42 M691.95 586.93 C802.75 459.61, 913.64 332.69, 1176.13 29.96 M691.95 586.93 C814.8 442.8, 939.24 298.78, 1176.13 29.96 M702.58 586.9 C808.77 462.45, 917.85 338.43, 1180.85 36.71 M702.58 586.9 C814.13 457.15, 926.85 327.6, 1180.85 36.71 M713.21 586.86 C807.92 477.04, 905.38 365.19, 1180.98 48.75 M713.21 586.86 C808.95 476.14, 905.08 365.88, 1180.98 48.75 M723.84 586.83 C898.88 385, 1072.83 185.34, 1180.46 61.55 M723.84 586.83 C854.44 435.14, 984.71 284.99, 1180.46 61.55 M734.47 586.79 C831.64 476.7, 928.99 364.38, 1180.59 73.59 M734.47 586.79 C858.51 444.53, 982.55 301.98, 1180.59 73.59 M745.1 586.76 C834.76 485, 924.53 381, 1180.73 85.63 M745.1 586.76 C836.38 481.69, 927.61 377.17, 1180.73 85.63 M755.73 586.72 C850.72 481.23, 943.63 373.38, 1180.86 97.67 M755.73 586.72 C875.9 447.95, 995.8 310.11, 1180.86 97.67 M766.36 586.69 C868.71 468.13, 971.73 351.49, 1180.99 109.71 M766.36 586.69 C854.68 483.91, 942.59 383.29, 1180.99 109.71 M776.99 586.66 C929.86 411.83, 1080.82 238.4, 1180.47 122.51 M776.99 586.66 C926.75 415.1, 1077.15 242.23, 1180.47 122.51 M786.97 587.38 C916.26 434.81, 1048.33 284.09, 1180.6 134.55 M786.97 587.38 C923.32 430.25, 1058.86 274.05, 1180.6 134.55 M797.6 587.34 C895.17 474.46, 991.39 364, 1180.74 146.59 M797.6 587.34 C892.5 477.73, 988.08 367.06, 1180.74 146.59 M808.23 587.31 C889.41 494.43, 969.23 401.96, 1180.87 158.63 M808.23 587.31 C923.21 455.69, 1037.79 324.35, 1180.87 158.63 M818.86 587.27 C901.06 493.17, 980.99 400.5, 1181 170.67 M818.86 587.27 C949.87 435.98, 1082.27 283.8, 1181 170.67 M829.49 587.24 C948.15 451.08, 1066.68 313.17, 1180.48 183.47 M829.49 587.24 C916.64 488.39, 1003.12 388.28, 1180.48 183.47 M840.12 587.2 C929.44 486.29, 1016.35 385.46, 1180.61 195.51 M840.12 587.2 C945.03 466.07, 1048.93 345.3, 1180.61 195.51 M850.75 587.17 C933.23 492.06, 1017.99 394.88, 1180.75 207.55 M850.75 587.17 C968.56 451.46, 1086.07 315.9, 1180.75 207.55 M861.38 587.13 C970.29 464.29, 1076.51 342.23, 1180.88 219.59 M861.38 587.13 C934.18 506.14, 1004.42 424.94, 1180.88 219.59 M872.01 587.1 C937.97 512.69, 1002.09 438.44, 1181.01 231.63 M872.01 587.1 C958.46 489.41, 1044.29 390.19, 1181.01 231.63 M882.64 587.07 C951.83 509.17, 1020.66 428.98, 1180.49 244.43 M882.64 587.07 C1000.01 449.58, 1118.18 312.86, 1180.49 244.43 M893.27 587.03 C999.68 466.66, 1103 346.19, 1180.62 256.47 M893.27 587.03 C977.75 488.23, 1062.64 391.26, 1180.62 256.47 M903.9 587 C996.93 480.98, 1088.06 373.34, 1180.76 268.51 M903.9 587 C977.38 501.92, 1052.37 415.83, 1180.76 268.51 M914.53 586.96 C1016.53 470.91, 1117.5 354.33, 1180.89 280.55 M914.53 586.96 C1005.38 481.8, 1096.83 376.76, 1180.89 280.55 M925.16 586.93 C980.61 519.44, 1038.58 455.29, 1181.02 292.59 M925.16 586.93 C982.79 522.64, 1038.11 457.94, 1181.02 292.59 M935.79 586.89 C988.93 527.71, 1039.06 465.78, 1180.5 305.39 M935.79 586.89 C985.87 527.27, 1036.18 469.16, 1180.5 305.39 M946.42 586.86 C1017.11 507.84, 1084.83 431.03, 1180.63 317.43 M946.42 586.86 C1033.46 484.28, 1121.74 383.17, 1180.63 317.43 M957.05 586.82 C1029.34 502.6, 1104.48 416.7, 1180.77 329.47 M957.05 586.82 C1026.13 508.77, 1093.55 430.32, 1180.77 329.47 M967.68 586.79 C1037.22 507.86, 1106.37 428.56, 1180.9 341.51 M967.68 586.79 C1014.58 532.05, 1060.43 478.45, 1180.9 341.51 M978.31 586.75 C1038.69 516.28, 1101.77 444.64, 1181.03 353.55 M978.31 586.75 C1044.03 510.08, 1109.16 435.14, 1181.03 353.55 M988.94 586.72 C1052.11 514.34, 1116.2 444.36, 1180.51 366.35 M988.94 586.72 C1058.34 506.79, 1127.6 427.56, 1180.51 366.35 M999.57 586.69 C1035.56 544.29, 1072.7 501.04, 1180.64 378.39 M999.57 586.69 C1066.53 508.87, 1135.1 430.62, 1180.64 378.39 M1010.2 586.65 C1058.01 527.75, 1109.61 471.17, 1180.78 390.43 M1010.2 586.65 C1077.21 510.3, 1143.42 434.1, 1180.78 390.43 M1020.17 587.37 C1053.63 548.69, 1087.38 509.92, 1180.91 402.47 M1020.17 587.37 C1057.2 544.64, 1094.17 502.55, 1180.91 402.47 M1030.8 587.34 C1065.08 547.87, 1096.62 511.44, 1181.04 414.51 M1030.8 587.34 C1060.49 550.77, 1091.88 515.06, 1181.04 414.51 M1041.44 587.3 C1094.51 523.81, 1146.7 463.03, 1180.52 427.3 M1041.44 587.3 C1082.12 538.22, 1125.56 489.67, 1180.52 427.3 M1052.07 587.27 C1093.2 543.56, 1134.86 495.87, 1180.65 439.34 M1052.07 587.27 C1087.67 544.85, 1124.85 503.98, 1180.65 439.34 M1062.7 587.23 C1101.36 542.6, 1136.86 499.5, 1180.79 451.39 M1062.7 587.23 C1093.57 551.94, 1124.55 517.45, 1180.79 451.39 M1073.33 587.2 C1116.16 540.39, 1157.68 492.26, 1180.92 463.43 M1073.33 587.2 C1097.38 559.86, 1122.25 533.11, 1180.92 463.43 M1083.96 587.16 C1112.94 554.77, 1142.14 521.83, 1181.05 475.47 M1083.96 587.16 C1103.07 564.47, 1122.67 543.17, 1181.05 475.47 M1094.59 587.13 C1116.34 562.42, 1135.35 539.53, 1180.53 488.26 M1094.59 587.13 C1126.69 547.34, 1162.17 508.93, 1180.53 488.26 M1105.22 587.1 C1130.05 561.34, 1151.58 531.79, 1180.66 500.3 M1105.22 587.1 C1128.19 562.62, 1149.56 535.66, 1180.66 500.3 M1115.85 587.06 C1134.08 565.66, 1154.4 541.88, 1180.8 512.34 M1115.85 587.06 C1133.96 565.64, 1153.99 543.47, 1180.8 512.34 M1126.48 587.03 C1137.08 572.81, 1152.38 554.73, 1180.93 524.39 M1126.48 587.03 C1144.98 566.54, 1164.17 544.88, 1180.93 524.39 M1137.11 586.99 C1152.83 566.31, 1168.67 548.75, 1181.06 536.43 M1137.11 586.99 C1152.08 568.53, 1169.44 549.88, 1181.06 536.43 M1147.08 587.71 C1153.97 578.32, 1162.91 568.29, 1176.6 553.75 M1147.08 587.71 C1159.21 574.44, 1169.14 561.43, 1176.6 553.75" stroke="#b2f2bb" stroke-width="1" fill="none"></path><path d="M32 0 C310.93 -0.36, 591.05 -0.95, 1143.24 0 M32 0 C303.18 -1.55, 574.78 -1.54, 1143.24 0 M1143.24 0 C1163.23 0.52, 1173.62 11.97, 1175.24 32 M1143.24 0 C1165.18 -1.45, 1175.2 12.11, 1175.24 32 M1175.24 32 C1176.18 136.56, 1176.04 240.26, 1175.24 552.7 M1175.24 32 C1174.05 184.47, 1174.34 337.61, 1175.24 552.7 M1175.24 552.7 C1176.37 575.35, 1165.42 584.23, 1143.24 584.7 M1175.24 552.7 C1174.29 572.37, 1163.03 584.66, 1143.24 584.7 M1143.24 584.7 C831.58 581.46, 519.3 580.43, 32 584.7 M1143.24 584.7 C894.1 582.63, 644.38 582.53, 32 584.7 M32 584.7 C12.55 585.47, 1.17 573.4, 0 552.7 M32 584.7 C11.82 584.85, 0.77 572.53, 0 552.7 M0 552.7 C0.81 378.55, -0.14 206.55, 0 32 M0 552.7 C-1.79 379.79, -2.18 206.32, 0 32 M0 32 C0.39 9.51, 10.26 -1.67, 32 0 M0 32 C-0.76 10.89, 11.63 -1.16, 32 0" stroke="#1e1e1e" stroke-width="2" fill="none"></path></g><g stroke-linecap="round" transform="translate(10 149.8893943823429) rotate(0 329.5 180.02416742167833)"><path d="M7.86 8.16 C7.86 8.16, 7.86 8.16, 7.86 8.16 M7.86 8.16 C7.86 8.16, 7.86 8.16, 7.86 8.16 M1.43 27.75 C7.95 19.16, 14.13 12.58, 24.4 1.33 M1.43 27.75 C8.29 20.27, 12.66 14.15, 24.4 1.33 M0.26 41.3 C7.62 33.76, 15.18 26.05, 36.34 -0.21 M0.26 41.3 C11.27 27.99, 24.39 14.34, 36.34 -0.21 M0.39 53.34 C9.84 41.68, 19.47 32.01, 46.97 -0.25 M0.39 53.34 C18.08 33.78, 35.48 11.64, 46.97 -0.25 M0.52 65.38 C20.75 42.43, 43.94 15.91, 57.6 -0.28 M0.52 65.38 C15.49 48.01, 31.6 29.34, 57.6 -0.28 M0 78.17 C26.28 48.6, 54.55 16.82, 67.57 0.44 M0 78.17 C19.07 55.07, 39.33 33.97, 67.57 0.44 M0.13 90.22 C24.31 63.63, 44.27 37.63, 78.2 0.41 M0.13 90.22 C29.13 57.16, 56.35 25.11, 78.2 0.41 M0.26 102.26 C33.26 65.93, 67.49 29.31, 88.83 0.37 M0.26 102.26 C32.12 65.87, 64.79 29.67, 88.83 0.37 M0.4 114.3 C38.47 70.32, 74.28 26.68, 99.46 0.34 M0.4 114.3 C23.02 86.47, 47.39 58.48, 99.46 0.34 M0.53 126.34 C38.13 85.27, 70.32 47.63, 110.09 0.3 M0.53 126.34 C24.2 98.25, 49.13 70.73, 110.09 0.3 M0.01 139.13 C35.34 98.37, 70.66 59.82, 120.72 0.27 M0.01 139.13 C35.76 98, 71.71 55.77, 120.72 0.27 M0.14 151.17 C47.89 96.37, 93.73 44.25, 131.35 0.23 M0.14 151.17 C50.68 93.36, 101.28 34.83, 131.35 0.23 M0.27 163.22 C35.51 122.71, 70.09 84.94, 141.98 0.2 M0.27 163.22 C38.06 119.49, 75.18 75.63, 141.98 0.2 M0.41 175.26 C46.19 123.04, 90.29 70.61, 152.61 0.16 M0.41 175.26 C54.61 112.5, 108.54 50.64, 152.61 0.16 M0.54 187.3 C45.86 134.13, 90.44 85.24, 163.24 0.13 M0.54 187.3 C35.1 146.96, 71.12 105.98, 163.24 0.13 M0.02 200.09 C47.59 146.03, 91.02 93.03, 173.87 0.09 M0.02 200.09 C55.98 133.68, 112.81 69.13, 173.87 0.09 M0.15 212.13 C45.94 160.49, 90.35 110.1, 184.5 0.06 M0.15 212.13 C70.97 130.96, 143.04 48.26, 184.5 0.06 M0.28 224.17 C52.94 166.46, 101.26 107.7, 195.13 0.03 M0.28 224.17 C63.31 154.31, 123.16 84.87, 195.13 0.03 M0.42 236.22 C77.47 149.59, 151.72 61.17, 205.76 -0.01 M0.42 236.22 C70.19 153.57, 140.44 72.31, 205.76 -0.01 M-0.11 249.01 C46.06 197.68, 92.01 145.85, 216.39 -0.04 M-0.11 249.01 C85.7 149.49, 170.86 51.15, 216.39 -0.04 M0.03 261.05 C74.45 176.42, 148.26 92.64, 227.02 -0.08 M0.03 261.05 C48.66 206.33, 96.21 151.83, 227.02 -0.08 M0.16 273.09 C85.34 176.89, 166.67 83.88, 237.65 -0.11 M0.16 273.09 C68.82 195.98, 136.66 117.23, 237.65 -0.11 M0.29 285.13 C87.4 185.36, 175.71 85.11, 248.28 -0.15 M0.29 285.13 C61.24 213.68, 121.69 144.15, 248.28 -0.15 M0.43 297.17 C102.1 181.63, 204.57 63.66, 258.91 -0.18 M0.43 297.17 C90.35 192.44, 180.14 88.57, 258.91 -0.18 M-0.1 309.97 C82.51 215.79, 161.18 123.35, 269.54 -0.22 M-0.1 309.97 C72.14 228.27, 143.84 145.03, 269.54 -0.22 M0.04 322.01 C105.92 200.17, 211.54 77.21, 280.17 -0.25 M0.04 322.01 C57.73 256.18, 114.76 190.8, 280.17 -0.25 M0.83 333.3 C67.67 258.58, 133.92 182.17, 290.8 -0.28 M0.83 333.3 C71.96 252.64, 142.07 172.15, 290.8 -0.28 M2.93 343.07 C75.84 259.93, 149.4 177, 300.78 0.44 M2.93 343.07 C91.72 239.55, 180.51 137.3, 300.78 0.44 M7 350.59 C68.29 279.64, 129.29 208.6, 311.41 0.4 M7 350.59 C87.79 256.44, 170.15 161.81, 311.41 0.4 M13.04 355.83 C80.93 280.38, 147.68 202.28, 322.04 0.37 M13.04 355.83 C121.02 232.88, 229.25 108.37, 322.04 0.37 M21.04 358.82 C108.81 256.15, 196.35 154.3, 332.67 0.33 M21.04 358.82 C84.99 286.53, 149.26 212.63, 332.67 0.33 M30.36 360.29 C106.22 271.84, 183.51 184.82, 343.3 0.3 M30.36 360.29 C124.76 251.97, 219.03 143.38, 343.3 0.3 M40.33 361.01 C147.12 239.25, 254.07 117.25, 353.93 0.26 M40.33 361.01 C119.94 270.65, 199.32 179.28, 353.93 0.26 M50.96 360.98 C166.7 229.58, 281.57 97.51, 364.56 0.23 M50.96 360.98 C165 231.68, 277.52 102, 364.56 0.23 M61.59 360.95 C136.09 275.23, 210.07 190.12, 375.19 0.19 M61.59 360.95 C174.43 230.36, 286.64 100.93, 375.19 0.19 M72.22 360.91 C177.99 240.21, 281.27 122.24, 385.82 0.16 M72.22 360.91 C186.96 227.67, 302.18 95.49, 385.82 0.16 M82.85 360.88 C161.48 271.62, 239.48 180.05, 396.45 0.12 M82.85 360.88 C153.13 282.46, 221.53 202.96, 396.45 0.12 M93.48 360.84 C213.19 222.05, 336.03 81.97, 407.08 0.09 M93.48 360.84 C163.6 281.91, 231.65 202.39, 407.08 0.09 M104.11 360.81 C186.5 265.38, 269.03 171.8, 417.71 0.06 M104.11 360.81 C191.46 259.93, 277.56 161.02, 417.71 0.06 M114.74 360.77 C204.27 258.77, 294.3 154.02, 428.34 0.02 M114.74 360.77 C193.36 269.19, 273.08 177.03, 428.34 0.02 M125.37 360.74 C232.35 237.74, 339.22 115.02, 438.97 -0.01 M125.37 360.74 C222.69 248.55, 321.77 134.37, 438.97 -0.01 M136 360.7 C227.52 255.14, 318 150.91, 449.6 -0.05 M136 360.7 C216.25 267.54, 297.79 173.44, 449.6 -0.05 M146.63 360.67 C263.56 226.88, 381.79 91.69, 460.23 -0.08 M146.63 360.67 C232.87 263.07, 318.69 163.93, 460.23 -0.08 M157.26 360.63 C267.4 232.85, 377.97 106.6, 470.86 -0.12 M157.26 360.63 C241.8 262.25, 326.21 164.29, 470.86 -0.12 M167.89 360.6 C245.84 270.44, 324.52 181.26, 481.49 -0.15 M167.89 360.6 C241.02 275.21, 315 190.66, 481.49 -0.15 M178.52 360.57 C282.71 239.67, 388.18 118.67, 492.12 -0.19 M178.52 360.57 C294.02 228.22, 408.4 96.27, 492.12 -0.19 M189.15 360.53 C270.48 268.97, 349.78 176.29, 502.75 -0.22 M189.15 360.53 C259.37 280.45, 329.94 198.91, 502.75 -0.22 M199.78 360.5 C263.77 286.04, 327.29 211.07, 513.38 -0.25 M199.78 360.5 C286.32 260.35, 372.62 161.26, 513.38 -0.25 M210.41 360.46 C298.01 260.78, 385.45 160.08, 523.35 0.47 M210.41 360.46 C281.97 280.92, 352.61 199.43, 523.35 0.47 M221.04 360.43 C292.46 277.81, 364.84 194.83, 533.98 0.43 M221.04 360.43 C338.54 225.11, 455.78 90.95, 533.98 0.43 M231.67 360.39 C300.53 281.74, 369.91 202.1, 544.61 0.4 M231.67 360.39 C341.14 233.54, 451.96 105.69, 544.61 0.4 M242.3 360.36 C364.11 222.88, 483.17 83.61, 555.24 0.36 M242.3 360.36 C328.96 259.82, 416.5 159.97, 555.24 0.36 M252.93 360.32 C371.45 224.54, 489.36 88.44, 565.87 0.33 M252.93 360.32 C342.22 258.01, 430.81 156.24, 565.87 0.33 M263.56 360.29 C370.48 238.27, 477.48 117.05, 576.5 0.29 M263.56 360.29 C345.33 263.92, 427.9 169.7, 576.5 0.29 M273.54 361.01 C351.84 271.44, 429.53 182.15, 587.14 0.26 M273.54 361.01 C345.12 277.57, 416.64 195.51, 587.14 0.26 M284.17 360.98 C368.37 262.85, 454.37 163.79, 597.77 0.22 M284.17 360.98 C360.16 274.52, 435.48 188.07, 597.77 0.22 M294.8 360.94 C401.63 239.45, 507.57 117.76, 608.4 0.19 M294.8 360.94 C404.56 232.73, 516.1 104.35, 608.4 0.19 M305.43 360.91 C390.05 264.37, 474.7 166.46, 619.03 0.16 M305.43 360.91 C421.41 226.11, 538.41 91.59, 619.03 0.16 M316.06 360.87 C428.47 232.97, 540.23 104.57, 629.66 0.12 M316.06 360.87 C432.12 225.64, 549.77 91.15, 629.66 0.12 M326.69 360.84 C424.02 251.1, 519.27 140.27, 638.97 1.6 M326.69 360.84 C409.63 264.09, 492.94 168.28, 638.97 1.6 M337.32 360.8 C402.47 285.92, 468.46 212.01, 646.98 4.58 M337.32 360.8 C440.51 241.57, 545.32 120.98, 646.98 4.58 M347.95 360.77 C432.25 262.94, 516.95 165.74, 652.36 10.58 M347.95 360.77 C464.57 226.41, 580.88 92.83, 652.36 10.58 M358.58 360.73 C422.15 286.18, 485.24 211.78, 657.09 17.34 M358.58 360.73 C433.98 274.16, 509.78 186.08, 657.09 17.34 M369.21 360.7 C476.75 235.69, 584.41 112.1, 658.53 27.87 M369.21 360.7 C432.96 288.39, 496.56 215.68, 658.53 27.87 M379.84 360.66 C461.53 266.33, 543.25 173.48, 659.98 38.4 M379.84 360.66 C458.9 269.65, 536.19 179.95, 659.98 38.4 M390.47 360.63 C466.71 274.08, 542.08 188.36, 659.45 51.2 M390.47 360.63 C477.33 260.77, 565.84 159.57, 659.45 51.2 M401.1 360.6 C489.89 254.46, 582.56 151.08, 659.59 63.24 M401.1 360.6 C480.39 269.35, 558.5 179.89, 659.59 63.24 M411.73 360.56 C508.94 248.19, 609.07 133.65, 659.72 75.28 M411.73 360.56 C486.71 272.59, 562.91 185.46, 659.72 75.28 M422.36 360.53 C500.48 272.53, 576.63 183.7, 659.85 87.32 M422.36 360.53 C510.11 259.29, 597.7 157.19, 659.85 87.32 M432.99 360.49 C484.4 300.7, 537.49 241.18, 659.99 99.36 M432.99 360.49 C521.59 257.26, 610.44 154.79, 659.99 99.36 M443.62 360.46 C516.42 276.34, 589.1 191.41, 659.46 112.16 M443.62 360.46 C503.76 290.84, 564.16 220.35, 659.46 112.16 M454.25 360.42 C531.03 271.27, 605.79 183.75, 659.6 124.2 M454.25 360.42 C513.72 292.38, 572.06 226.49, 659.6 124.2 M464.88 360.39 C527.08 290.13, 588.27 217.41, 659.73 136.24 M464.88 360.39 C534.93 278.55, 605.67 197.08, 659.73 136.24 M475.51 360.35 C537.15 287.03, 600.36 215.81, 659.86 148.28 M475.51 360.35 C535.02 294.54, 591.96 227.77, 659.86 148.28 M486.14 360.32 C556.68 280.86, 623.96 202.75, 660 160.32 M486.14 360.32 C540.99 297.5, 595.76 234.58, 660 160.32 M496.77 360.29 C552.7 296.97, 606.36 232.83, 659.47 173.12 M496.77 360.29 C541.62 310.41, 585.26 260.13, 659.47 173.12 M506.74 361.01 C554.85 305.76, 601.78 253.3, 659.61 185.16 M506.74 361.01 C559.6 298.1, 613.23 236.74, 659.61 185.16 M517.37 360.97 C555.31 316.61, 594.1 272.79, 659.74 197.2 M517.37 360.97 C570.14 300.17, 623.44 240.14, 659.74 197.2 M528 360.94 C579.22 302.57, 632.37 242.35, 659.87 209.24 M528 360.94 C564.55 320.76, 599.22 279.93, 659.87 209.24 M538.64 360.9 C580.43 309.43, 627.25 261.35, 660.01 221.28 M538.64 360.9 C575.71 317.55, 614.59 274.07, 660.01 221.28 M549.27 360.87 C594.04 310.52, 635.57 259.34, 659.48 234.08 M549.27 360.87 C590.66 312.17, 634.57 263.48, 659.48 234.08 M559.9 360.83 C594.64 322.19, 626.32 284.75, 659.62 246.12 M559.9 360.83 C578.89 338.33, 599.93 314.69, 659.62 246.12 M570.53 360.8 C594.65 333.9, 616.53 307.14, 659.75 258.16 M570.53 360.8 C602.3 323.53, 637.53 285.08, 659.75 258.16 M581.16 360.76 C612.8 326.62, 642.28 291.28, 659.88 270.2 M581.16 360.76 C599.05 342.14, 616.16 321.75, 659.88 270.2 M591.79 360.73 C612.62 337.16, 638.53 310.19, 660.02 282.24 M591.79 360.73 C609.57 340.28, 627.36 321.24, 660.02 282.24 M602.42 360.7 C619.76 344.17, 633.88 324.43, 659.49 295.04 M602.42 360.7 C623.93 336.62, 645.21 309.55, 659.49 295.04 M613.05 360.66 C631.08 340.09, 644.86 320.4, 659.63 307.08 M613.05 360.66 C622.48 349.15, 631.67 338.7, 659.63 307.08 M623.68 360.63 C631.35 349.88, 639.25 342.37, 659.76 319.12 M623.68 360.63 C636.44 345.53, 649.67 331.09, 659.76 319.12 M634.96 359.84 C642.03 352.1, 648.26 342.72, 659.24 331.91 M634.96 359.84 C643.01 350.73, 649.54 342.83, 659.24 331.91" stroke="#a5d8ff" stroke-width="1" fill="none"></path><path d="M32 0 C185.81 1.47, 340.26 2.48, 627 0 M32 0 C211.73 1.39, 391.56 1.23, 627 0 M627 0 C647.4 -0.18, 658.57 10.63, 659 32 M627 0 C647.25 -0.69, 657.5 12.83, 659 32 M659 32 C660.27 133.95, 658.8 234.98, 659 328.05 M659 32 C656.37 98.55, 656.65 164.16, 659 328.05 M659 328.05 C657.57 350.62, 649.3 361.53, 627 360.05 M659 328.05 C657.82 347.77, 647.96 359.21, 627 360.05 M627 360.05 C488.2 358.72, 347.91 357.58, 32 360.05 M627 360.05 C450.14 362.17, 273.66 361.83, 32 360.05 M32 360.05 C10.87 358.85, 0.57 347.61, 0 328.05 M32 360.05 C10.26 360.74, -0.54 349.81, 0 328.05 M0 328.05 C0.42 265.82, 2.75 202.04, 0 32 M0 328.05 C1.71 244.41, 1.03 158.95, 0 32 M0 32 C1.97 11.51, 12.02 -0.13, 32 0 M0 32 C1.6 12.96, 11.04 -1.91, 32 0" stroke="#1e1e1e" stroke-width="2" fill="none"></path></g><g stroke-linecap="round"><g transform="translate(333 340.93772922569957) rotate(0 -65 -0.5)"><path d="M1 -0.92 C-20.7 -1.25, -107.52 -1, -129.51 -1.03 M0.07 1.22 C-21.8 1, -108.76 0.66, -130.19 0.49" stroke="#1e1e1e" stroke-width="2" fill="none"></path></g><g transform="translate(333 340.93772922569957) rotate(0 -65 -0.5)"><path d="M-131.8 -1.16 L-117.85 -7.44 L-117.41 8.51 L-132.01 0.35" stroke="none" stroke-width="0" fill="#1e1e1e" fill-rule="evenodd"></path><path d="M-130.19 0.49 C-126.53 -1.23, -120.56 -5.25, -116.56 -5.77 M-130.19 0.49 C-125.75 -1.23, -121.91 -2.63, -116.56 -5.77 M-116.56 -5.77 C-117.78 -2.56, -116.18 1.05, -116.63 6.91 M-116.56 -5.77 C-116.44 -1.53, -116.46 3.09, -116.63 6.91 M-116.63 6.91 C-120.57 4.47, -124.19 4.16, -130.19 0.49 M-116.63 6.91 C-121.88 5.17, -128.09 1.69, -130.19 0.49 M-130.19 0.49 C-130.19 0.49, -130.19 0.49, -130.19 0.49 M-130.19 0.49 C-130.19 0.49, -130.19 0.49, -130.19 0.49" stroke="#1e1e1e" stroke-width="2" fill="none"></path></g></g><mask></mask><g stroke-linecap="round" transform="translate(62 248.93772922569957) rotate(0 52 97)"><path d="M26 0 C39.68 -1.38, 54.34 -0.13, 78 0 M26 0 C41.19 0.56, 54.84 -0.35, 78 0 M78 0 C96.08 0.67, 105.91 9.73, 104 26 M78 0 C97.6 0.97, 102.43 7.62, 104 26 M104 26 C103.48 78.14, 104.94 125.36, 104 168 M104 26 C103.67 72.37, 102.44 120.29, 104 168 M104 168 C104.33 184.97, 95.44 194.58, 78 194 M104 168 C105.43 184.51, 95.49 195.13, 78 194 M78 194 C60.85 196.09, 47.15 193.74, 26 194 M78 194 C60.57 194.58, 43.43 193.77, 26 194 M26 194 C8.11 192.6, -0.5 183.79, 0 168 M26 194 C6.52 192.44, -0.59 184.7, 0 168 M0 168 C0.19 110.84, -1.54 56.09, 0 26 M0 168 C-0.13 120.63, -0.36 71.9, 0 26 M0 26 C-0.42 8.65, 10.02 -0.35, 26 0 M0 26 C2.3 8.78, 6.99 1.74, 26 0" stroke="#1e1e1e" stroke-width="4" fill="none"></path></g><g stroke-linecap="round"><g transform="translate(250.5961074164743 339.87512421486156) rotate(0 48 0.5)"><path d="M-0.01 0.64 C16.2 0.76, 80.44 -0.14, 96.27 -0.16 M-1.47 -0.07 C14.69 0.23, 79 0.5, 95.46 0.77" stroke="#1e1e1e" stroke-width="2" fill="none"></path></g><g transform="translate(250.5961074164743 339.87512421486156) rotate(0 48 0.5)"><path d="M94.66 2 L80.88 5.72 L81.68 -6.71 L93.59 2.28" stroke="none" stroke-width="0" fill="#1e1e1e" fill-rule="evenodd"></path><path d="M95.46 0.77 C93.22 2.46, 87.98 2.18, 81.8 6.98 M95.46 0.77 C91.66 2.2, 88.97 3.97, 81.8 6.98 M81.8 6.98 C82.5 3.06, 81.54 1.13, 81.93 -5.7 M81.8 6.98 C81.57 3.92, 81.34 -0.28, 81.93 -5.7 M81.93 -5.7 C85.03 -3.45, 88.65 -3.54, 95.46 0.77 M81.93 -5.7 C86.15 -3.97, 90.91 -1.76, 95.46 0.77 M95.46 0.77 C95.46 0.77, 95.46 0.77, 95.46 0.77 M95.46 0.77 C95.46 0.77, 95.46 0.77, 95.46 0.77" stroke="#1e1e1e" stroke-width="2" fill="none"></path></g></g><mask></mask><g stroke-linecap="round" transform="translate(96 248.93772922569957) rotate(0 18.5 4)"><path d="M2 0 C12.84 -1.18, 21.48 -2.62, 35 0 C37.4 -0.72, 38.69 -1.7, 37 2 C36.96 3.59, 37.03 4.3, 37 6 C37.27 6.27, 38.06 9.14, 35 8 C20.04 10.4, 9.2 9.32, 2 8 C-0.11 6.44, -1.89 7.63, 0 6 C0.39 5.07, -0.3 3.15, 0 2 C-1.64 1.4, 2.86 0.2, 2 0" stroke="none" stroke-width="0" fill="#1e1e1e"></path><path d="M2 0 C13.74 -0.17, 26.2 -0.12, 35 0 M2 0 C14.16 -0.53, 26.65 0.23, 35 0 M35 0 C35.82 0.71, 36.15 -0.28, 37 2 M35 0 C36.33 -0.18, 36.41 0.8, 37 2 M37 2 C37.14 3.35, 36.98 4.63, 37 6 M37 2 C36.92 3.42, 37.08 4.72, 37 6 M37 6 C37.42 7.09, 36.46 7.97, 35 8 M37 6 C37.47 7.83, 36.8 7.58, 35 8 M35 8 C26.06 7.2, 16.41 8.44, 2 8 M35 8 C25.25 7.75, 14.97 8.41, 2 8 M2 8 C0.93 8.17, 0.66 7.45, 0 6 M2 8 C-0.07 8.97, -0.5 8.31, 0 6 M0 6 C-0.18 4.72, -0.02 3.34, 0 2 M0 6 C-0.07 5.12, 0.06 4.21, 0 2 M0 2 C0.94 0.2, 0.73 0.08, 2 0 M0 2 C0.34 1.64, -0.04 1.07, 2 0" stroke="#1e1e1e" stroke-width="4" fill="none"></path></g><g stroke-linecap="round" transform="translate(65.04979717216253 425.4348311554008) rotate(0 48.94941344714303 4.14105666906417)"><path d="M2.07 0 C20.99 -0.87, 43.41 -0.32, 95.83 0 C99.44 0.02, 95.77 1.03, 97.9 2.07 C98.35 2.66, 98 3.65, 97.9 6.21 C100.11 6.7, 95.65 7.19, 95.83 8.28 C67.43 8.44, 35.67 6.01, 2.07 8.28 C1.54 9.81, -1.52 6.28, 0 6.21 C0.25 5.16, 0.34 4.53, 0 2.07 C0.75 1.29, -0.02 -0.3, 2.07 0" stroke="none" stroke-width="0" fill="#1e1e1e"></path><path d="M2.07 0 C24.68 -0.13, 45.76 -1.15, 95.83 0 M2.07 0 C26.1 0.09, 50.54 0.03, 95.83 0 M95.83 0 C96.21 -0.62, 98.77 -0.03, 97.9 2.07 M95.83 0 C97.14 -0.75, 97.35 0.77, 97.9 2.07 M97.9 2.07 C97.77 3.25, 97.9 4.26, 97.9 6.21 M97.9 2.07 C97.92 3.19, 97.92 4.26, 97.9 6.21 M97.9 6.21 C98.62 8.19, 96.28 8.45, 95.83 8.28 M97.9 6.21 C98.64 8.59, 98.25 8.39, 95.83 8.28 M95.83 8.28 C74.4 7.97, 52.12 8.64, 2.07 8.28 M95.83 8.28 C62.28 8.91, 28.39 8.79, 2.07 8.28 M2.07 8.28 C0.99 7.58, 0 7.05, 0 6.21 M2.07 8.28 C1.55 9.33, 0.68 8.27, 0 6.21 M0 6.21 C-0.16 4.69, 0.01 3.08, 0 2.07 M0 6.21 C0.06 5.42, -0.03 4.58, 0 2.07 M0 2.07 C0.43 0.79, 0.88 0.25, 2.07 0 M0 2.07 C-0.64 -0.13, -0.18 0.26, 2.07 0" stroke="#1e1e1e" stroke-width="2" fill="none"></path></g><g stroke-linecap="round" transform="translate(71.63301546657226 431.59332568888084) rotate(0 43.321823614825064 3.397790087437272)"><path d="M1.7 0 C28.24 1.29, 57.81 -2.21, 84.94 0 C87.13 -1.52, 84.81 -1, 86.64 1.7 C86.3 2.83, 86.69 3.19, 86.64 5.1 C84.78 4.06, 84.05 5.21, 84.94 6.8 C67.29 7.2, 48.1 8.66, 1.7 6.8 C0.8 8.34, -1.65 8.04, 0 5.1 C0.36 4.11, 0.07 3.36, 0 1.7 C0.79 -1.25, 0.4 0.46, 1.7 0" stroke="none" stroke-width="0" fill="#1e1e1e"></path><path d="M1.7 0 C23 0.8, 44.83 0.39, 84.94 0 M1.7 0 C19.85 -0.5, 38.26 0.11, 84.94 0 M84.94 0 C85.54 0.54, 86.5 1.26, 86.64 1.7 M84.94 0 C86.65 0.33, 86.91 0.25, 86.64 1.7 M86.64 1.7 C86.66 2.76, 86.61 3.73, 86.64 5.1 M86.64 1.7 C86.59 3.06, 86.63 4.32, 86.64 5.1 M86.64 5.1 C86.9 6.56, 85.62 5.98, 84.94 6.8 M86.64 5.1 C86.62 6.94, 86.64 6.08, 84.94 6.8 M84.94 6.8 C63.47 8.08, 39.93 7.2, 1.7 6.8 M84.94 6.8 C66.56 6.14, 48.38 6.46, 1.7 6.8 M1.7 6.8 C0.12 7.67, 0.13 6.15, 0 5.1 M1.7 6.8 C0.99 7.43, -0.19 6.56, 0 5.1 M0 5.1 C0.07 4.22, -0.16 3.53, 0 1.7 M0 5.1 C0.08 4.37, -0.06 3.65, 0 1.7 M0 1.7 C0.98 -0.28, 0.42 0.43, 1.7 0 M0 1.7 C0.82 1.67, 0.91 -0.6, 1.7 0" stroke="#1e1e1e" stroke-width="2" fill="none"></path></g><g stroke-linecap="round" transform="translate(78.00387188051707 436.6900108200367) rotate(0 37.16332908134507 2.123618804648288)"><path d="M1.06 0 C22.58 2.14, 42 -0.62, 73.26 0 C74.19 1.22, 72.47 2.51, 74.33 1.06 C74.33 1.55, 74.13 2.34, 74.33 3.19 C72.37 5.08, 73.48 1.95, 73.26 4.25 C54.8 5.12, 38.54 1.79, 1.06 4.25 C-1.03 3.09, -1.2 3.1, 0 3.19 C0.03 2.91, -0.04 2.07, 0 1.06 C1.04 0.07, 1.24 2.05, 1.06 0" stroke="none" stroke-width="0" fill="#1e1e1e"></path><path d="M1.06 0 C28.23 0.43, 55.92 -0.07, 73.26 0 M1.06 0 C25.58 0.06, 50.05 0.8, 73.26 0 M73.26 0 C73.4 0.75, 73.65 1.17, 74.33 1.06 M73.26 0 C74.09 1.15, 73.18 0.39, 74.33 1.06 M74.33 1.06 C74.38 1.82, 74.27 2.47, 74.33 3.19 M74.33 1.06 C74.3 1.83, 74.34 2.49, 74.33 3.19 M74.33 3.19 C75.06 4.5, 74.2 3.6, 73.26 4.25 M74.33 3.19 C74.45 3.61, 74.69 4.94, 73.26 4.25 M73.26 4.25 C47.18 3.6, 19.76 4.75, 1.06 4.25 M73.26 4.25 C45.46 4.24, 17.96 3.93, 1.06 4.25 M1.06 4.25 C-0.08 3.31, -0.14 3.66, 0 3.19 M1.06 4.25 C-0.28 3.4, 0.06 5.03, 0 3.19 M0 3.19 C0.07 2.67, 0.05 2.13, 0 1.06 M0 3.19 C-0.05 2.48, -0.02 1.8, 0 1.06 M0 1.06 C-0.44 -0.28, -0.09 -0.08, 1.06 0 M0 1.06 C0.02 0.58, 0.98 0.96, 1.06 0" stroke="#1e1e1e" stroke-width="2" fill="none"></path></g><g stroke-linecap="round" transform="translate(383.5256535062697 300.8421382996132) rotate(0 100.62423145314153 37.30459312409147)"><path d="M18.65 0 C55.7 0.97, 97.56 5.26, 182.6 0 C195.5 1.46, 197.85 5.26, 201.25 18.65 C197.63 29.66, 201.8 37.24, 201.25 55.96 C200.09 67.05, 192.87 76.59, 182.6 74.61 C135.09 74.34, 88.14 80.51, 18.65 74.61 C9.16 78.07, -0.17 68.64, 0 55.96 C-1.57 46.99, -0.8 37.62, 0 18.65 C3.09 6.55, 7.76 0.35, 18.65 0" stroke="none" stroke-width="0" fill="#1e1e1e"></path><path d="M18.65 0 C75.11 -1.59, 132.15 0.42, 182.6 0 M18.65 0 C63.9 0.19, 111.08 -0.06, 182.6 0 M182.6 0 C196.55 1.68, 200.93 7.42, 201.25 18.65 M182.6 0 C195.27 0.81, 203.19 6.66, 201.25 18.65 M201.25 18.65 C201.1 24.61, 199.89 32.29, 201.25 55.96 M201.25 18.65 C202.09 28.44, 200.73 37.79, 201.25 55.96 M201.25 55.96 C200.66 69.53, 193.53 76.19, 182.6 74.61 M201.25 55.96 C201.31 69.25, 196.56 75.75, 182.6 74.61 M182.6 74.61 C144.91 73.59, 110.36 74.27, 18.65 74.61 M182.6 74.61 C145.62 74.23, 110.31 73.76, 18.65 74.61 M18.65 74.61 C5.97 75.83, -0.67 69.45, 0 55.96 M18.65 74.61 C6.44 72.97, -0.71 67.43, 0 55.96 M0 55.96 C0.28 43.12, 0.48 33.93, 0 18.65 M0 55.96 C-0.78 46.3, -1.25 38.97, 0 18.65 M0 18.65 C0.69 7.94, 6.27 1.99, 18.65 0 M0 18.65 C-1.57 7.07, 4.31 -0.8, 18.65 0" stroke="#1e1e1e" stroke-width="2" fill="none"></path></g><g stroke-linecap="round" transform="translate(563.6675703028694 218.8702034085175) rotate(0 6.13562386909399 47.36701626940561)"><path d="M3.07 0 C5.13 0.05, 7.01 0.5, 9.2 0 C11.23 -1.52, 10.78 1.57, 12.27 3.07 C13.4 30.8, 11.67 56.56, 12.27 91.67 C13.53 94.13, 10.75 96.52, 9.2 94.73 C7.09 95.38, 5.01 94.7, 3.07 94.73 C1.38 95.96, 0.4 91.11, 0 91.67 C-2.53 63.82, 1.72 38.21, 0 3.07 C0.75 2.97, 3.19 -0.37, 3.07 0" stroke="none" stroke-width="0" fill="#1e1e1e"></path><path d="M3.07 0 C5.41 0.12, 7.91 -0.06, 9.2 0 M3.07 0 C4.24 0.12, 5.6 0.08, 9.2 0 M9.2 0 C11.59 0.04, 12.88 1.33, 12.27 3.07 M9.2 0 C10.33 1.01, 12.69 0.11, 12.27 3.07 M12.27 3.07 C12.62 26.78, 11.28 50.98, 12.27 91.67 M12.27 3.07 C11.79 20.91, 12.42 39.74, 12.27 91.67 M12.27 91.67 C12.97 94.26, 10.96 94.58, 9.2 94.73 M12.27 91.67 C13.39 94.26, 11.73 95.05, 9.2 94.73 M9.2 94.73 C7.17 94.51, 4.78 94.63, 3.07 94.73 M9.2 94.73 C6.9 94.85, 4.39 94.69, 3.07 94.73 M3.07 94.73 C0.55 93.83, 0.87 94, 0 91.67 M3.07 94.73 C0.28 95.74, -1.07 93.3, 0 91.67 M0 91.67 C-0.54 64.26, -0.42 37.33, 0 3.07 M0 91.67 C0.25 63.16, -0.3 33.82, 0 3.07 M0 3.07 C0.66 0.38, 1.85 -0.27, 3.07 0 M0 3.07 C0.96 1.94, 0.28 0.98, 3.07 0" stroke="#1e1e1e" stroke-width="2" fill="none"></path></g><g stroke-linecap="round" transform="translate(422.7936462684713 319.9852847711865) rotate(0 53.257215183735866 16.934321878699393)"><path d="M8.47 0 C30.73 -1.82, 53.45 2.03, 98.05 0 C101.43 -0.07, 108.78 -0.75, 106.51 8.47 C106.83 12.65, 103.81 20.57, 106.51 25.4 C104.55 34.16, 103.21 31.82, 98.05 33.87 C68.2 36.31, 32.77 33.3, 8.47 33.87 C0.21 31.45, -0.07 30.36, 0 25.4 C2 21.89, -1.96 12.99, 0 8.47 C-1.12 1.37, 4.42 -2.5, 8.47 0" stroke="none" stroke-width="0" fill="#ffffff"></path><path d="M8.47 0 C35.71 0.72, 61.07 1.31, 98.05 0 M8.47 0 C40.71 0.49, 74.27 -0.19, 98.05 0 M98.05 0 C105.06 0.58, 104.54 4.42, 106.51 8.47 M98.05 0 C103.42 1.67, 106.06 2.55, 106.51 8.47 M106.51 8.47 C104.9 13.91, 107 19.37, 106.51 25.4 M106.51 8.47 C106.8 12.32, 107.11 16.4, 106.51 25.4 M106.51 25.4 C106.23 30.04, 103.8 32.35, 98.05 33.87 M106.51 25.4 C106.71 32.98, 104.06 35.76, 98.05 33.87 M98.05 33.87 C80.76 31.26, 60.37 33.12, 8.47 33.87 M98.05 33.87 C80.19 33.14, 62.89 34.68, 8.47 33.87 M8.47 33.87 C2.25 35.29, -0.39 31.27, 0 25.4 M8.47 33.87 C3.99 33.4, 0.68 29.76, 0 25.4 M0 25.4 C0.5 21.46, -0.71 15.15, 0 8.47 M0 25.4 C-0.54 19.39, 0.08 11.58, 0 8.47 M0 8.47 C1.8 2.92, 3.15 -1.11, 8.47 0 M0 8.47 C1.11 3.63, 0.88 0.08, 8.47 0" stroke="#1e1e1e" stroke-width="2" fill="none"></path></g><g stroke-linecap="round" transform="translate(1235.471664053349 150.78606579559158) rotate(0 329.4999999999999 177.936806184732)"><path d="M7.86 8.16 C7.86 8.16, 7.86 8.16, 7.86 8.16 M7.86 8.16 C7.86 8.16, 7.86 8.16, 7.86 8.16 M1.43 27.75 C9.18 17.14, 17.97 6.82, 24.4 1.33 M1.43 27.75 C8.14 19.74, 16.58 10.97, 24.4 1.33 M0.26 41.3 C10.68 30.44, 20.63 19.39, 36.34 -0.21 M0.26 41.3 C9.18 31.93, 15.71 23.12, 36.34 -0.21 M0.39 53.34 C16.54 36.09, 31.16 18.26, 46.97 -0.25 M0.39 53.34 C12.28 39.89, 22.93 25.72, 46.97 -0.25 M0.52 65.38 C18.61 44.32, 34.55 24.28, 57.6 -0.28 M0.52 65.38 C18.86 43.59, 37.26 20.18, 57.6 -0.28 M0 78.17 C16.47 59.66, 31.34 42.21, 67.57 0.44 M0 78.17 C19.74 55.27, 38.44 31.26, 67.57 0.44 M0.13 90.22 C16.27 68.65, 34.66 49.26, 78.2 0.41 M0.13 90.22 C18.28 67.06, 38.48 44.7, 78.2 0.41 M0.26 102.26 C27.08 69.69, 54.65 39.31, 88.83 0.37 M0.26 102.26 C30.7 67.6, 60.83 32.07, 88.83 0.37 M0.4 114.3 C28.87 83.5, 54.03 51.55, 99.46 0.34 M0.4 114.3 C32.23 77.75, 64.2 41.11, 99.46 0.34 M0.53 126.34 C34.51 86.04, 72.13 46, 110.09 0.3 M0.53 126.34 C27.14 97.08, 51.83 67.81, 110.09 0.3 M0.01 139.13 C41.06 93.79, 80.35 45.46, 120.72 0.27 M0.01 139.13 C31.29 100.43, 64.99 63.68, 120.72 0.27 M0.14 151.17 C29.85 116.36, 62.35 83.39, 131.35 0.23 M0.14 151.17 C35.22 112.24, 68.8 71.58, 131.35 0.23 M0.27 163.22 C44.75 107.62, 93.87 55.27, 141.98 0.2 M0.27 163.22 C36.12 121.49, 73.05 79.49, 141.98 0.2 M0.41 175.26 C44.89 125.15, 85.93 75.4, 152.61 0.16 M0.41 175.26 C41.18 128.62, 82.4 82.64, 152.61 0.16 M0.54 187.3 C37.92 144.75, 74.4 101.61, 163.24 0.13 M0.54 187.3 C36.63 145.36, 72.12 104.49, 163.24 0.13 M0.02 200.09 C52.71 138.67, 105.26 75.69, 173.87 0.09 M0.02 200.09 C62.11 129.29, 124.66 57.62, 173.87 0.09 M0.15 212.13 C45.95 161.11, 91.53 108.26, 184.5 0.06 M0.15 212.13 C59.8 144.92, 119.61 78.52, 184.5 0.06 M0.28 224.17 C53.76 160.58, 106.82 101.76, 195.13 0.03 M0.28 224.17 C72.65 142.75, 144.97 59.91, 195.13 0.03 M0.42 236.22 C53.58 174.92, 107.31 112.06, 205.76 -0.01 M0.42 236.22 C64.47 166.57, 126.86 94.4, 205.76 -0.01 M-0.11 249.01 C63.95 177.67, 127.6 106.57, 216.39 -0.04 M-0.11 249.01 C50.58 190.85, 101.62 132.33, 216.39 -0.04 M0.03 261.05 C86.47 165.68, 169.18 66.95, 227.02 -0.08 M0.03 261.05 C73.7 174.85, 149.26 89.1, 227.02 -0.08 M0.16 273.09 C52.2 213.15, 105.05 155.08, 237.65 -0.11 M0.16 273.09 C92.8 167.89, 184.16 62.74, 237.65 -0.11 M0.29 285.13 C85.52 187.61, 170.49 90.11, 248.28 -0.15 M0.29 285.13 C88.51 183.37, 177.5 80.87, 248.28 -0.15 M0.43 297.17 C67.52 218.41, 134.42 142.37, 258.91 -0.18 M0.43 297.17 C91.88 190.66, 183.96 84.54, 258.91 -0.18 M-0.1 309.97 C105.18 191.81, 206.97 73.78, 269.54 -0.22 M-0.1 309.97 C97.2 197.3, 194.88 86.4, 269.54 -0.22 M0.04 322.01 C107.52 198.56, 214.47 75.54, 280.17 -0.25 M0.04 322.01 C109.05 195, 219.16 68.29, 280.17 -0.25 M1.48 332.54 C98.56 219.96, 197.3 106.9, 290.8 -0.28 M1.48 332.54 C85.28 234.77, 169.57 137.52, 290.8 -0.28 M3.58 342.32 C84.57 245.54, 168.1 152.52, 300.78 0.44 M3.58 342.32 C73.83 259.73, 144.57 178.81, 300.78 0.44 M8.97 348.32 C102.86 240.62, 198.54 131.93, 311.41 0.4 M8.97 348.32 C107.46 234.16, 207.12 120.14, 311.41 0.4 M15.66 352.82 C136.84 214.23, 256.39 74.39, 322.04 0.37 M15.66 352.82 C119.88 233.33, 221.9 115.33, 322.04 0.37 M24.32 355.05 C103.1 266.46, 179.32 178.33, 332.67 0.33 M24.32 355.05 C98.62 268.02, 174.23 181.16, 332.67 0.33 M33.64 356.52 C134.31 239.71, 236.23 122.21, 343.3 0.3 M33.64 356.52 C104.75 274.23, 177.24 190.73, 343.3 0.3 M44.27 356.49 C151.91 234, 260.11 110.86, 353.93 0.26 M44.27 356.49 C109.07 279.69, 175.85 203.13, 353.93 0.26 M54.9 356.45 C124.39 275.64, 193.97 196.47, 364.56 0.23 M54.9 356.45 C174.91 217.81, 295.61 78.15, 364.56 0.23 M65.53 356.42 C139.57 270.33, 212.59 184.38, 375.19 0.19 M65.53 356.42 C132.46 279.29, 199.59 202.13, 375.19 0.19 M76.16 356.38 C187.89 226.39, 301.2 95.16, 385.82 0.16 M76.16 356.38 C186.35 228.62, 296.66 101.81, 385.82 0.16 M86.79 356.35 C155.29 278.66, 223.78 201.35, 396.45 0.12 M86.79 356.35 C160.6 271.51, 233.33 187.67, 396.45 0.12 M97.42 356.31 C219.74 216.48, 340.99 74.99, 407.08 0.09 M97.42 356.31 C218.32 214.89, 341.26 74.59, 407.08 0.09 M108.05 356.28 C175.91 278.7, 241.65 202.46, 417.71 0.06 M108.05 356.28 C188.05 264.8, 266.14 173.61, 417.71 0.06 M118.68 356.24 C208.27 253.07, 296.3 152.67, 428.34 0.02 M118.68 356.24 C199.93 262.37, 282.25 167.89, 428.34 0.02 M129.31 356.21 C193.55 281.15, 259.2 205.38, 438.97 -0.01 M129.31 356.21 C211.67 261.44, 293.42 167.83, 438.97 -0.01 M139.94 356.18 C254.67 225.77, 371.25 92.15, 449.6 -0.05 M139.94 356.18 C211.32 272.45, 283.31 189.12, 449.6 -0.05 M150.57 356.14 C224.97 271.05, 298.73 186.31, 460.23 -0.08 M150.57 356.14 C229.17 263.82, 308.44 173.26, 460.23 -0.08 M161.2 356.11 C262.31 239.49, 365.46 122.33, 470.86 -0.12 M161.2 356.11 C244.89 261.9, 328.03 165.45, 470.86 -0.12 M171.83 356.07 C285.31 227.04, 396.34 99.23, 481.49 -0.15 M171.83 356.07 C242.34 274.7, 311.71 195.13, 481.49 -0.15 M182.46 356.04 C301.21 220.43, 419.01 85.18, 492.12 -0.19 M182.46 356.04 C258.66 271.42, 333.37 184.72, 492.12 -0.19 M193.09 356 C289.71 244.58, 386.8 132.72, 502.75 -0.22 M193.09 356 C308.5 224.83, 421.73 93.93, 502.75 -0.22 M203.72 355.97 C295.22 250.51, 386.33 144.28, 513.38 -0.25 M203.72 355.97 C303.76 240.6, 405.49 123.47, 513.38 -0.25 M214.35 355.93 C291.68 266.06, 369.86 174.87, 523.35 0.47 M214.35 355.93 C303.58 254.62, 391.93 153.03, 523.35 0.47 M224.32 356.65 C347.64 216.49, 469.84 74.13, 533.98 0.43 M224.32 356.65 C286.03 284.4, 349.18 211.93, 533.98 0.43 M234.95 356.62 C297.49 285.76, 359.34 213.23, 544.61 0.4 M234.95 356.62 C354.86 218.63, 474.32 81.7, 544.61 0.4 M245.58 356.59 C349.29 235.4, 454.48 114.83, 555.24 0.36 M245.58 356.59 C323.9 266.46, 401.77 176.33, 555.24 0.36 M256.21 356.55 C323.73 278.58, 390.18 201.28, 565.87 0.33 M256.21 356.55 C340.06 257.56, 424.79 160.04, 565.87 0.33 M266.85 356.52 C368.75 235.92, 473.22 117.09, 576.5 0.29 M266.85 356.52 C375.54 230.12, 484.26 104.47, 576.5 0.29 M277.48 356.48 C343 281.14, 409.3 205.33, 587.14 0.26 M277.48 356.48 C388.35 228.76, 499.67 100.09, 587.14 0.26 M288.11 356.45 C394.58 236.03, 501.53 111.95, 597.77 0.22 M288.11 356.45 C381.8 250.98, 474.32 144.26, 597.77 0.22 M298.74 356.41 C403.64 235.57, 509.34 113.94, 608.4 0.19 M298.74 356.41 C378.45 263.21, 458.37 170.25, 608.4 0.19 M309.37 356.38 C391.61 259.63, 475.57 163.36, 619.03 0.16 M309.37 356.38 C425.34 223.17, 542.34 88.72, 619.03 0.16 M320 356.34 C382.46 283.83, 444.65 209.8, 629.66 0.12 M320 356.34 C439.98 218.2, 560.3 79.62, 629.66 0.12 M330.63 356.31 C443.42 226.47, 554.51 96.48, 638.97 1.6 M330.63 356.31 C448.26 221.6, 566 86.95, 638.97 1.6 M341.26 356.27 C418.71 268.66, 497.69 178.6, 646.98 4.58 M341.26 356.27 C454.27 229.62, 565.31 100.89, 646.98 4.58 M351.89 356.24 C417.5 280.93, 485.38 203.76, 652.36 10.58 M351.89 356.24 C412.96 284.66, 475.75 212.5, 652.36 10.58 M362.52 356.21 C477.76 224.73, 592.31 92.55, 657.09 17.34 M362.52 356.21 C424.9 285.45, 487.72 212.88, 657.09 17.34 M373.15 356.17 C484.51 228.97, 595.38 98.51, 658.53 27.87 M373.15 356.17 C445.85 271.15, 519.85 185.92, 658.53 27.87 M383.78 356.14 C480.83 247.94, 576.4 137.61, 659.98 38.4 M383.78 356.14 C485.36 240.16, 584.72 125.87, 659.98 38.4 M394.41 356.1 C490.63 245.46, 589.02 133.6, 659.45 51.2 M394.41 356.1 C456.47 285.38, 518.53 213.3, 659.45 51.2 M405.04 356.07 C486.86 261.84, 569.15 168.2, 659.59 63.24 M405.04 356.07 C464.58 285.69, 524.32 217.14, 659.59 63.24 M415.67 356.03 C507.76 250.35, 601.4 142.23, 659.72 75.28 M415.67 356.03 C497.51 260.71, 580.3 165.06, 659.72 75.28 M426.3 356 C508.93 262.59, 589.98 167.66, 659.85 87.32 M426.3 356 C489.3 281.83, 551.75 208.85, 659.85 87.32 M436.93 355.96 C487 298.69, 533.95 245.38, 659.99 99.36 M436.93 355.96 C502.32 283.29, 564.91 209.72, 659.99 99.36 M446.9 356.68 C513.22 282.71, 580.03 204.73, 659.46 112.16 M446.9 356.68 C512 283.39, 576.6 208.11, 659.46 112.16 M457.53 356.65 C500.06 306.33, 544.66 255.61, 659.6 124.2 M457.53 356.65 C515.4 291.88, 572.59 225.06, 659.6 124.2 M468.16 356.62 C531.44 282.33, 596.89 206.75, 659.73 136.24 M468.16 356.62 C538.16 274.15, 608.46 192.43, 659.73 136.24 M478.79 356.58 C522.67 304.81, 568.05 252.66, 659.86 148.28 M478.79 356.58 C523.53 304.54, 568.2 252.86, 659.86 148.28 M489.42 356.55 C527.11 313.27, 565.7 269.96, 660 160.32 M489.42 356.55 C540.66 297.08, 595.16 236.09, 660 160.32 M500.05 356.51 C558.64 290.37, 615.4 224.67, 659.47 173.12 M500.05 356.51 C531.58 321.03, 562.92 284.43, 659.47 173.12 M510.68 356.48 C565.54 292.14, 621.16 230.17, 659.61 185.16 M510.68 356.48 C566.1 291.42, 621.69 227.06, 659.61 185.16 M521.31 356.44 C560.85 310.38, 603.39 263.59, 659.74 197.2 M521.31 356.44 C557.63 315.57, 593.9 274.03, 659.74 197.2 M531.94 356.41 C566.28 318.82, 595.29 283.16, 659.87 209.24 M531.94 356.41 C557.5 324.3, 585.09 295.01, 659.87 209.24 M542.57 356.37 C589.9 304.99, 632.98 254.58, 660.01 221.28 M542.57 356.37 C571.42 320.93, 599.88 286.04, 660.01 221.28 M553.2 356.34 C595.13 309.39, 636.1 258.88, 659.48 234.08 M553.2 356.34 C581.87 323.05, 609.93 291.14, 659.48 234.08 M563.83 356.3 C593.35 321.68, 622.92 286.93, 659.62 246.12 M563.83 356.3 C592.48 321.94, 621.72 289.62, 659.62 246.12 M574.46 356.27 C608.31 317.95, 640.07 282.97, 659.75 258.16 M574.46 356.27 C607.78 319.49, 642.19 279.97, 659.75 258.16 M585.09 356.24 C605.71 333.86, 623.89 309.5, 659.88 270.2 M585.09 356.24 C602.45 333.98, 621.09 312.77, 659.88 270.2 M595.72 356.2 C617.85 326.91, 642.93 297.95, 660.02 282.24 M595.72 356.2 C612.34 336.35, 628.73 318.77, 660.02 282.24 M606.35 356.17 C617.88 341.06, 628.1 328.71, 659.49 295.04 M606.35 356.17 C616.89 342.03, 628.5 329.75, 659.49 295.04 M616.98 356.13 C629.72 341.94, 643.28 329.64, 659.63 307.08 M616.98 356.13 C630.07 340.47, 642.3 324.89, 659.63 307.08 M627.61 356.1 C635.76 344.16, 645.59 336.24, 659.76 319.12 M627.61 356.1 C635.93 347.57, 644.12 338.25, 659.76 319.12 M639.55 354.55 C645.47 343.63, 654.81 336.09, 659.24 331.91 M639.55 354.55 C643.61 349.03, 648.57 343.72, 659.24 331.91" stroke="#a5d8ff" stroke-width="1" fill="none"></path><path d="M32 0 C222.56 1.8, 413.25 1.34, 627 0 M32 0 C227.53 0.16, 423.67 -0.18, 627 0 M627 0 C649.35 -0.75, 657.47 10.49, 659 32 M627 0 C647.05 -1.97, 659.04 8.74, 659 32 M659 32 C659.02 122.83, 657.73 211.86, 659 323.87 M659 32 C658.65 107.75, 658.1 183.85, 659 323.87 M659 323.87 C660.09 347.17, 646.9 353.99, 627 355.87 M659 323.87 C660.84 343.82, 646.76 357.28, 627 355.87 M627 355.87 C411.68 355.98, 196.56 355.24, 32 355.87 M627 355.87 C393.01 353.89, 159.92 353.35, 32 355.87 M32 355.87 C9.31 353.94, 0.56 344.57, 0 323.87 M32 355.87 C11.07 353.78, -2.3 343.34, 0 323.87 M0 323.87 C0.43 246.82, 2.15 171.71, 0 32 M0 323.87 C-1.78 215.47, -1.1 108.12, 0 32 M0 32 C1.43 9.87, 9.95 -1.16, 32 0 M0 32 C-1.52 10.31, 10.69 1.6, 32 0" stroke="#1e1e1e" stroke-width="2" fill="none"></path></g><g stroke-linecap="round"><g transform="translate(1571.1753868884668 337.6596781650556) rotate(0 65 -0.5)"><path d="M-0.51 -0.57 C21.14 -0.62, 107.16 -0.58, 128.8 -0.65 M1.42 1.75 C23.51 1.36, 109.75 -2.35, 130.88 -2.59" stroke="#1e1e1e" stroke-width="2" fill="none"></path></g><g transform="translate(1571.1753868884668 337.6596781650556) rotate(0 65 -0.5)"><path d="M129.53 -4.52 L118.04 3.51 L117.46 -10.35 L128.88 -4.22" stroke="none" stroke-width="0" fill="#1e1e1e" fill-rule="evenodd"></path><path d="M130.88 -2.59 C127.33 -2.74, 125.66 -0.66, 117.48 4.14 M130.88 -2.59 C127.39 -1.02, 123.27 1.16, 117.48 4.14 M117.48 4.14 C116.32 1.33, 116.26 -1.39, 117.11 -8.53 M117.48 4.14 C117.64 0.1, 116.91 -3.36, 117.11 -8.53 M117.11 -8.53 C119.71 -7.1, 123.04 -4.74, 130.88 -2.59 M117.11 -8.53 C123.15 -6.49, 127.52 -3.21, 130.88 -2.59 M130.88 -2.59 C130.88 -2.59, 130.88 -2.59, 130.88 -2.59 M130.88 -2.59 C130.88 -2.59, 130.88 -2.59, 130.88 -2.59" stroke="#1e1e1e" stroke-width="2" fill="none"></path></g></g><mask></mask><g stroke-linecap="round" transform="translate(1738.471664053349 245.6596781650556) rotate(0 51.999999999999886 97)"><path d="M26 0 C39.96 -0.6, 52.71 -0.31, 78 0 M26 0 C43.23 -0.06, 58.67 0.23, 78 0 M78 0 C94.22 -1.72, 104.04 6.99, 104 26 M78 0 C95.56 -0.32, 101.74 9.16, 104 26 M104 26 C102.3 70.98, 102.33 119.07, 104 168 M104 26 C104.54 60.68, 103.28 92.45, 104 168 M104 168 C105.6 184.13, 93.96 195.22, 78 194 M104 168 C105.42 183.11, 95.31 193.48, 78 194 M78 194 C63.41 194.87, 43.15 191.64, 26 194 M78 194 C57 192.8, 37.63 193.45, 26 194 M26 194 C9.01 192.18, -2 183.71, 0 168 M26 194 C7.81 192.43, -0.6 183.71, 0 168 M0 168 C0.78 130.1, -1.32 88.73, 0 26 M0 168 C-0.15 130.77, -1.23 93.75, 0 26 M0 26 C-1.32 8.35, 8.69 1.39, 26 0 M0 26 C0.11 10.72, 8.59 -1.16, 26 0" stroke="#1e1e1e" stroke-width="4" fill="none"></path></g><g stroke-linecap="round"><g transform="translate(1654.7233733848327 336.5970731542175) rotate(0 -48 0.5)"><path d="M-0.67 -0.04 C-16.55 0.12, -80.75 1.21, -96.5 1.26 M1.18 -1.1 C-14.8 -1.36, -81.59 -1.11, -97.71 -0.73" stroke="#1e1e1e" stroke-width="2" fill="none"></path></g><g transform="translate(1654.7233733848327 336.5970731542175) rotate(0 -48 0.5)"><path d="M-97.36 -2.55 L-86.18 -8.85 L-84.78 4.09 L-98.23 -2.14" stroke="none" stroke-width="0" fill="#1e1e1e" fill-rule="evenodd"></path><path d="M-97.71 -0.73 C-95.06 -2.57, -91.99 -2.22, -84.19 -7.23 M-97.71 -0.73 C-95.09 -2.29, -91.71 -4.42, -84.19 -7.23 M-84.19 -7.23 C-84.42 -4.65, -83.93 0.71, -84.04 5.45 M-84.19 -7.23 C-84.51 -4.48, -83.75 -1.67, -84.04 5.45 M-84.04 5.45 C-86.61 2.6, -93.59 3.02, -97.71 -0.73 M-84.04 5.45 C-86.81 3.33, -90.55 2.4, -97.71 -0.73 M-97.71 -0.73 C-97.71 -0.73, -97.71 -0.73, -97.71 -0.73 M-97.71 -0.73 C-97.71 -0.73, -97.71 -0.73, -97.71 -0.73" stroke="#1e1e1e" stroke-width="2" fill="none"></path></g></g><mask></mask><g stroke-linecap="round" transform="translate(1771.471664053349 245.6596781650556) rotate(0 18.499999999999886 4)"><path d="M2 0 C15.13 2.45, 28.73 0.66, 35 0 C38.15 -1.75, 37.37 -0.53, 37 2 C37.05 3.23, 37.32 3.88, 37 6 C38.06 9.61, 36.05 7.73, 35 8 C23.62 7.82, 12.24 5.97, 2 8 C-1.43 8.37, 1.74 6.81, 0 6 C-0.12 4.81, 0.18 4.22, 0 2 C0 0.58, -0.54 1.78, 2 0" stroke="none" stroke-width="0" fill="#1e1e1e"></path><path d="M2 0 C10.27 0.76, 17.5 0.58, 35 0 M2 0 C10.38 -0.41, 19.33 -0.4, 35 0 M35 0 C36.43 -0.14, 36.02 0.88, 37 2 M35 0 C36.59 -0.75, 36.13 0.22, 37 2 M37 2 C36.87 3.04, 36.83 4.18, 37 6 M37 2 C37.07 3.53, 36.92 5.25, 37 6 M37 6 C37.62 6.37, 36.32 7.77, 35 8 M37 6 C37.19 7.09, 35.46 9.06, 35 8 M35 8 C23.92 8.09, 10.58 7.16, 2 8 M35 8 C28.37 7.49, 21.07 7.54, 2 8 M2 8 C0.3 7.32, -0.26 6.63, 0 6 M2 8 C0.4 8.51, 0.97 8.14, 0 6 M0 6 C-0.07 4.64, 0.13 3.17, 0 2 M0 6 C-0.06 4.94, 0.01 3.99, 0 2 M0 2 C0.05 1.56, 0.63 -0.5, 2 0 M0 2 C0.4 1.58, 0.41 -0.75, 2 0" stroke="#1e1e1e" stroke-width="4" fill="none"></path></g><g stroke-linecap="round" transform="translate(1741.5230399869006 422.1567800947568) rotate(0 48.949413447143115 4.14105666906417)"><path d="M2.07 0 C29.63 -0.55, 55.34 -2.84, 95.83 0 C97.58 -1.2, 96.85 -0.12, 97.9 2.07 C98.25 2.82, 98.12 4.46, 97.9 6.21 C97.62 7.33, 99.38 6.92, 95.83 8.28 C68.78 6.07, 34.55 8.53, 2.07 8.28 C2.43 7.75, -1.89 7.84, 0 6.21 C0.2 4.88, 0.01 3.47, 0 2.07 C-1.21 2.47, 1.56 1.19, 2.07 0" stroke="none" stroke-width="0" fill="#1e1e1e"></path><path d="M2.07 0 C25.7 0.18, 50.19 -1.09, 95.83 0 M2.07 0 C29.4 -0.02, 56.76 0.33, 95.83 0 M95.83 0 C96.23 0.21, 98.12 0.04, 97.9 2.07 M95.83 0 C96.34 -0.45, 97.43 0.27, 97.9 2.07 M97.9 2.07 C97.72 3.73, 98.09 5.01, 97.9 6.21 M97.9 2.07 C97.84 2.99, 97.98 3.68, 97.9 6.21 M97.9 6.21 C97.89 7.37, 97.37 8.07, 95.83 8.28 M97.9 6.21 C97.02 8.66, 97.93 7.15, 95.83 8.28 M95.83 8.28 C76.47 7.72, 57.05 8.68, 2.07 8.28 M95.83 8.28 C70.17 7.45, 45.31 7.51, 2.07 8.28 M2.07 8.28 C0.43 7.57, -0.23 8.04, 0 6.21 M2.07 8.28 C1.66 9.09, 0.82 7.19, 0 6.21 M0 6.21 C0.13 5.24, -0.07 3.9, 0 2.07 M0 6.21 C0.01 5.28, 0.02 4.3, 0 2.07 M0 2.07 C-0.04 0.19, 1.04 0.8, 2.07 0 M0 2.07 C-0.26 -0.06, 1.58 -1.07, 2.07 0" stroke="#1e1e1e" stroke-width="2" fill="none"></path></g><g stroke-linecap="round" transform="translate(1746.1950013571266 428.31527462823686) rotate(0 43.32182361482512 3.397790087437272)"><path d="M1.7 0 C35.98 -1.97, 67.02 -1.43, 84.94 0 C85.02 -0.81, 84.87 0.9, 86.64 1.7 C86.85 3.23, 86.62 3.94, 86.64 5.1 C88.81 4.87, 86.48 8.07, 84.94 6.8 C58.66 6.29, 38.31 5.4, 1.7 6.8 C-1.32 7.04, 0.75 5.66, 0 5.1 C-0.02 4.24, -0.22 3.73, 0 1.7 C0.87 1.75, 1.3 -1.82, 1.7 0" stroke="none" stroke-width="0" fill="#1e1e1e"></path><path d="M1.7 0 C32.04 -0.98, 63.04 -0.77, 84.94 0 M1.7 0 C19.58 0.28, 36.87 0.45, 84.94 0 M84.94 0 C86.3 -0.65, 85.89 0.18, 86.64 1.7 M84.94 0 C85.61 -0.42, 87.48 -0.15, 86.64 1.7 M86.64 1.7 C86.8 2.6, 86.47 3.87, 86.64 5.1 M86.64 1.7 C86.68 2.43, 86.63 3.31, 86.64 5.1 M86.64 5.1 C86.81 6.02, 85.31 7.72, 84.94 6.8 M86.64 5.1 C87.37 5.1, 84.95 7.84, 84.94 6.8 M84.94 6.8 C56.91 6.79, 30.5 6.69, 1.7 6.8 M84.94 6.8 C67.37 6.12, 50.04 6.1, 1.7 6.8 M1.7 6.8 C0.34 7.24, 0.84 6.93, 0 5.1 M1.7 6.8 C1.39 6.4, -0.35 5.76, 0 5.1 M0 5.1 C-0.08 3.81, -0.11 2.53, 0 1.7 M0 5.1 C0 4.21, 0 3.12, 0 1.7 M0 1.7 C0.35 1.36, 0.34 -0.65, 1.7 0 M0 1.7 C0.89 -0.5, 0.27 0.3, 1.7 0" stroke="#1e1e1e" stroke-width="2" fill="none"></path></g><g stroke-linecap="round" transform="translate(1752.1411340101417 433.4119597593927) rotate(0 37.163329081344955 2.123618804648288)"><path d="M1.06 0 C24.61 -0.57, 46.37 -0.18, 73.26 0 C72.2 0.33, 75.27 2.03, 74.33 1.06 C74.31 1.59, 74.57 2.03, 74.33 3.19 C74.73 5.17, 73.73 6.8, 73.26 4.25 C59.15 3.85, 39.68 4.63, 1.06 4.25 C1.11 3.68, -1.4 4.81, 0 3.19 C-0.13 2.72, 0.09 2.01, 0 1.06 C0.74 -1.47, -0.43 0.19, 1.06 0" stroke="none" stroke-width="0" fill="#1e1e1e"></path><path d="M1.06 0 C26.3 -0.28, 50.84 0.29, 73.26 0 M1.06 0 C16.19 0.16, 32.42 -0.28, 73.26 0 M73.26 0 C73.22 -0.39, 73.92 -0.02, 74.33 1.06 M73.26 0 C74.81 -0.72, 74.32 -0.55, 74.33 1.06 M74.33 1.06 C74.24 1.9, 74.27 2.5, 74.33 3.19 M74.33 1.06 C74.33 1.82, 74.34 2.58, 74.33 3.19 M74.33 3.19 C73.56 4.82, 74.6 3.26, 73.26 4.25 M74.33 3.19 C73.2 4.94, 74.26 3.73, 73.26 4.25 M73.26 4.25 C56.19 4.52, 38.83 3.35, 1.06 4.25 M73.26 4.25 C57.35 3.65, 41.57 4.22, 1.06 4.25 M1.06 4.25 C1.2 4.95, 0.72 3.55, 0 3.19 M1.06 4.25 C0.01 3.78, 0.7 4.59, 0 3.19 M0 3.19 C-0.06 2.33, -0.01 1.61, 0 1.06 M0 3.19 C0 2.37, 0.02 1.66, 0 1.06 M0 1.06 C-0.23 -0.29, 1.13 -0.93, 1.06 0 M0 1.06 C-0.29 0.65, 1.39 0.81, 1.06 0" stroke="#1e1e1e" stroke-width="2" fill="none"></path></g><g stroke-linecap="round" transform="translate(1319.6975476407963 297.5640872389693) rotate(0 100.62423145314153 37.30459312409147)"><path d="M18.65 0 C55.37 0.24, 92.54 1.82, 182.6 0 C196.34 2.32, 199.87 7.68, 201.25 18.65 C204.18 31.22, 201.74 49.33, 201.25 55.96 C200.91 71.92, 192.13 71.71, 182.6 74.61 C128.49 74.35, 80.65 73.22, 18.65 74.61 C4.28 75.88, 0.24 68.39, 0 55.96 C1.52 46.53, 1.33 31.31, 0 18.65 C-1.08 6.48, 3.63 -1.66, 18.65 0" stroke="none" stroke-width="0" fill="#1e1e1e"></path><path d="M18.65 0 C53.55 0.95, 90.21 1.12, 182.6 0 M18.65 0 C65.8 -1, 111.74 -0.74, 182.6 0 M182.6 0 C194.21 -0.74, 202.71 4.96, 201.25 18.65 M182.6 0 C195.02 -1.81, 202.51 8.48, 201.25 18.65 M201.25 18.65 C199.69 25.8, 202.12 36.92, 201.25 55.96 M201.25 18.65 C201.41 26.02, 200.48 34.75, 201.25 55.96 M201.25 55.96 C202.51 66.42, 193.06 76.43, 182.6 74.61 M201.25 55.96 C201.83 67.35, 193.47 72.39, 182.6 74.61 M182.6 74.61 C127.03 72.9, 73.48 74.15, 18.65 74.61 M182.6 74.61 C144.35 73.89, 107.42 74.15, 18.65 74.61 M18.65 74.61 C7.65 73.92, -0.6 67.58, 0 55.96 M18.65 74.61 C7.63 76, 1.65 67.48, 0 55.96 M0 55.96 C-0.1 46.13, 1.61 36.34, 0 18.65 M0 55.96 C0.36 42.23, -0.21 26.27, 0 18.65 M0 18.65 C1.55 4.36, 5.71 0.52, 18.65 0 M0 18.65 C2.07 7.83, 6.7 1.6, 18.65 0" stroke="#1e1e1e" stroke-width="2" fill="none"></path></g><g stroke-linecap="round" transform="translate(1328.5328460122917 215.59215234787354) rotate(0 6.135623869094047 47.36701626940561)"><path d="M3.07 0 C4.08 0.13, 6.47 0.54, 9.2 0 C10.25 1.06, 14.55 0.74, 12.27 3.07 C13.64 30.02, 12.99 56.97, 12.27 91.67 C10.18 91.62, 11.62 96.47, 9.2 94.73 C7.72 94.57, 5.34 95.02, 3.07 94.73 C1.19 94.73, -0.09 92.5, 0 91.67 C0.35 57.21, -1.17 26.58, 0 3.07 C-1.87 -0.17, 1.12 -1.49, 3.07 0" stroke="none" stroke-width="0" fill="#1e1e1e"></path><path d="M3.07 0 C4.31 0.03, 6.02 -0.3, 9.2 0 M3.07 0 C4.92 -0.04, 6.95 -0.04, 9.2 0 M9.2 0 C11.98 -0.63, 12.27 0.23, 12.27 3.07 M9.2 0 C11.88 1.13, 11.45 -0.06, 12.27 3.07 M12.27 3.07 C12.61 37.34, 11.04 70.37, 12.27 91.67 M12.27 3.07 C11.96 28.11, 12.66 51.74, 12.27 91.67 M12.27 91.67 C11.29 94.62, 11.5 94.28, 9.2 94.73 M12.27 91.67 C11.49 92.6, 11.57 94.37, 9.2 94.73 M9.2 94.73 C7.01 94.59, 5.1 94.62, 3.07 94.73 M9.2 94.73 C7.93 94.86, 6.5 94.69, 3.07 94.73 M3.07 94.73 C0.72 94.33, 0.61 94.32, 0 91.67 M3.07 94.73 C1.85 94.28, -0.41 93.04, 0 91.67 M0 91.67 C0.77 70.98, 0.96 50.17, 0 3.07 M0 91.67 C-0.27 69.22, 0.23 46.97, 0 3.07 M0 3.07 C-0.26 1.28, 1.92 0.7, 3.07 0 M0 3.07 C0.24 1.82, 0.25 0.17, 3.07 0" stroke="#1e1e1e" stroke-width="2" fill="none"></path></g><g stroke-linecap="round" transform="translate(1375.163587417406 316.70723371054254) rotate(0 53.257215183735866 16.934321878699393)"><path d="M8.47 0 C33.85 2.12, 55.25 1.26, 98.05 0 C106.84 -0.39, 106.15 5.83, 106.51 8.47 C106.27 15.65, 104.11 14.4, 106.51 25.4 C107.02 33.45, 102.96 31.25, 98.05 33.87 C68.39 34.79, 42.83 33.52, 8.47 33.87 C2.7 32.19, 2.46 32.25, 0 25.4 C-1 19.77, -2.28 12.29, 0 8.47 C0.14 0.76, 0.08 -1.81, 8.47 0" stroke="none" stroke-width="0" fill="#ffffff"></path><path d="M8.47 0 C35.22 -2.05, 62.96 0.36, 98.05 0 M8.47 0 C29.09 -0.02, 51.26 -0.28, 98.05 0 M98.05 0 C103.69 -1.58, 107.61 4.79, 106.51 8.47 M98.05 0 C102.04 -2.17, 108.35 1.43, 106.51 8.47 M106.51 8.47 C104.98 12.37, 106.24 16.58, 106.51 25.4 M106.51 8.47 C106.92 12.35, 105.55 18.67, 106.51 25.4 M106.51 25.4 C107.02 30.14, 102.34 31.94, 98.05 33.87 M106.51 25.4 C107.15 30.32, 104.09 31.77, 98.05 33.87 M98.05 33.87 C78.76 33.01, 60.78 33.08, 8.47 33.87 M98.05 33.87 C67.91 34.15, 36.04 34.09, 8.47 33.87 M8.47 33.87 C4.05 35.08, 1.43 30.25, 0 25.4 M8.47 33.87 C2 32.53, -1.52 30.69, 0 25.4 M0 25.4 C1.39 20.24, -0.97 15.79, 0 8.47 M0 25.4 C0.69 18.19, -0.18 12.77, 0 8.47 M0 8.47 C1.8 4.23, 3.24 1.39, 8.47 0 M0 8.47 C-1.54 3.15, 1.76 -0.93, 8.47 0" stroke="#1e1e1e" stroke-width="2" fill="none"></path></g><g stroke-linecap="round"><g transform="translate(905.1400036525365 103.17078400509484) rotate(0 209.07011374238357 50.166222277126195)"><path d="M-0.63 -1.03 C50.62 0.75, 238.09 -5.31, 307.79 11.7 C377.49 28.72, 399.08 86.39, 417.57 101.06 M1.24 1.04 C52.32 2.96, 237.7 -6.61, 306.91 9.74 C376.12 26.08, 397.78 83.97, 416.51 99.09" stroke="#1e1e1e" stroke-width="2" fill="none"></path></g><g transform="translate(905.1400036525365 103.17078400509484) rotate(0 209.07011374238357 50.166222277126195)"><path d="M418.16 99.21 L402.59 94.44 L413.24 84.09 L417.39 99.59" stroke="none" stroke-width="0" fill="#1e1e1e" fill-rule="evenodd"></path><path d="M416.51 99.09 C410.79 97.11, 408.07 94.14, 402.97 92.63 M416.51 99.09 C411.79 97.3, 406.42 93.87, 402.97 92.63 M402.97 92.63 C405.46 90.33, 408.47 86.93, 412.76 84.57 M402.97 92.63 C405.86 91.08, 408.23 88.19, 412.76 84.57 M412.76 84.57 C413.42 89.24, 416.26 94.49, 416.51 99.09 M412.76 84.57 C414.36 89.98, 415.47 93.8, 416.51 99.09 M416.51 99.09 C416.51 99.09, 416.51 99.09, 416.51 99.09 M416.51 99.09 C416.51 99.09, 416.51 99.09, 416.51 99.09" stroke="#1e1e1e" stroke-width="2" fill="none"></path></g></g><mask></mask><g stroke-linecap="round"><g transform="translate(899.3450668098228 103.97748246965952) rotate(0 -155.94519760978073 50.868910275323984)"><path d="M6.61 -0.47 C-32.29 1.42, -171.33 -5.87, -225.83 11.25 C-280.33 28.37, -304.85 87.23, -320.39 102.26 M8.4 -1.76 C-30.69 0.29, -172.53 -4.54, -226.95 12.45 C-281.36 29.44, -302.79 85.21, -318.08 100.19" stroke="#1e1e1e" stroke-width="2" fill="none"></path></g><g transform="translate(899.3450668098228 103.97748246965952) rotate(0 -155.94519760978073 50.868910275323984)"><path d="M-319.98 100.04 L-314.77 87.02 L-305.2 94.61 L-317.07 101.31" stroke="none" stroke-width="0" fill="#1e1e1e" fill-rule="evenodd"></path><path d="M-318.08 100.19 C-317.77 95.18, -317.11 89.58, -315.26 85.45 M-318.08 100.19 C-317.24 95.67, -316.13 90.78, -315.26 85.45 M-315.26 85.45 C-312.14 87.63, -306.53 90.89, -304.98 92.88 M-315.26 85.45 C-312.78 86.64, -310.31 88.92, -304.98 92.88 M-304.98 92.88 C-308.88 95.73, -315.21 98.22, -318.08 100.19 M-304.98 92.88 C-308.2 94.81, -311.47 96.02, -318.08 100.19 M-318.08 100.19 C-318.08 100.19, -318.08 100.19, -318.08 100.19 M-318.08 100.19 C-318.08 100.19, -318.08 100.19, -318.08 100.19" stroke="#1e1e1e" stroke-width="2" fill="none"></path></g></g><mask></mask><g transform="translate(390.6775481318929 28.075878229468344) rotate(0 109.80000305175781 35)"><text x="0" y="0" font-family="Virgil, Segoe UI Emoji" font-size="28px" fill="#1e1e1e" text-anchor="start" style="white-space: pre;" direction="ltr" dominant-baseline="text-before-edge">LoRa connection</text><text x="0" y="35" font-family="Virgil, Segoe UI Emoji" font-size="28px" fill="#1e1e1e" text-anchor="start" style="white-space: pre;" direction="ltr" dominant-baseline="text-before-edge">Range: 2-12 Km</text></g><g transform="translate(29.311611950224233 158.90801649978653) rotate(0 99.43333435058594 35)"><text x="0" y="0" font-family="Virgil, Segoe UI Emoji" font-size="28px" fill="#1e1e1e" text-anchor="start" style="white-space: pre;" direction="ltr" dominant-baseline="text-before-edge">WiFi connection</text><text x="0" y="35" font-family="Virgil, Segoe UI Emoji" font-size="28px" fill="#1e1e1e" text-anchor="start" style="white-space: pre;" direction="ltr" dominant-baseline="text-before-edge">Range 30m</text></g><g transform="translate(198.6403143328256 287.733949136927) rotate(0 78.48332977294922 17.5)"><text x="0" y="0" font-family="Virgil, Segoe UI Emoji" font-size="28px" fill="#1e1e1e" text-anchor="start" style="white-space: pre;" direction="ltr" dominant-baseline="text-before-edge">WebSockets</text></g><g transform="translate(1552.0867931050948 285.5412648745339) rotate(0 78.48332977294922 17.5)"><text x="0" y="0" font-family="Virgil, Segoe UI Emoji" font-size="28px" fill="#1e1e1e" text-anchor="start" style="white-space: pre;" direction="ltr" dominant-baseline="text-before-edge">WebSockets</text></g><g transform="translate(1674.4689267977765 159.498480553322) rotate(0 99.43333435058594 35)"><text x="198.86666870117188" y="0" font-family="Virgil, Segoe UI Emoji" font-size="28px" fill="#1e1e1e" text-anchor="end" style="white-space: pre;" direction="ltr" dominant-baseline="text-before-edge">WiFi connection</text><text x="198.86666870117188" y="35" font-family="Virgil, Segoe UI Emoji" font-size="28px" fill="#1e1e1e" text-anchor="end" style="white-space: pre;" direction="ltr" dominant-baseline="text-before-edge">Range 30m</text></g></svg>